<svg width="48" height="48" viewBox="0 0 48 48" fill="none" xmlns="http://www.w3.org/2000/svg">
<g clip-path="url(#clip0_14050_3537)">
<path d="M38.0995 23.4722H13.2682C11.0808 23.4722 9.3075 25.2455 9.3075 27.4329V38.5229C9.3075 40.7103 11.0808 42.4836 13.2682 42.4836H38.0995C40.2869 42.4836 42.0602 40.7103 42.0602 38.5229V27.4329C42.0602 25.2455 40.2869 23.4722 38.0995 23.4722Z" fill="#CBDBFC"/>
<path d="M40.9244 6.13867H26.8203C24.9454 6.13867 23.4254 7.65863 23.4254 9.5336V15.0453C23.4254 16.9202 24.9454 18.4402 26.8203 18.4402H40.9244C42.7994 18.4402 44.3193 16.9202 44.3193 15.0453V9.5336C44.3193 7.65863 42.7994 6.13867 40.9244 6.13867Z" fill="#CBDBFC"/>
<path d="M28.6643 21.9195H20.8213M28.6643 28.1324H20.8213M28.6643 15.7065H20.8213M15.3312 9.49365V37.4517M13.4488 9.49365H26.6252C29.2607 9.49365 30.5785 9.49365 31.5851 10.0015C32.4705 10.4482 33.1904 11.1611 33.6416 12.0379C34.1546 13.0347 34.1545 14.3395 34.1545 16.9491V29.9962C34.1545 32.6059 34.1546 33.9107 33.6416 34.9075C33.1904 35.7843 32.4705 36.4971 31.5851 36.9438C30.5785 37.4517 29.2607 37.4517 26.6252 37.4517H13.4488C10.8133 37.4517 9.49551 37.4517 8.48886 36.9438C7.60341 36.4971 6.8835 35.7843 6.43233 34.9075C5.91943 33.9107 5.91943 32.6059 5.91943 29.9962V16.9491C5.91943 14.3395 5.91943 13.0347 6.43233 12.0379C6.8835 11.1611 7.60341 10.4482 8.48886 10.0015C9.49551 9.49365 10.8133 9.49365 13.4488 9.49365Z" stroke="#1252D3" stroke-width="3.08028" stroke-linecap="round" stroke-linejoin="round"/>
</g>
<defs>
<clipPath id="clip0_14050_3537">
<rect width="48" height="48" fill="white"/>
</clipPath>
</defs>
</svg>
