<svg width="48" height="48" viewBox="0 0 48 48" fill="none" xmlns="http://www.w3.org/2000/svg">
<g clip-path="url(#clip0_14050_3493)">
<path d="M2.71973 11.9629H31.7357C34.943 11.9629 36.5467 11.9629 37.7717 12.5407C38.8493 13.049 39.7254 13.8601 40.2744 14.8578C40.8986 15.9918 40.8986 17.4766 40.8986 20.4458V28.2218C40.8986 31.1911 40.8986 32.6758 40.2744 33.8099C39.7254 34.8075 38.8493 35.6185 37.7717 36.1269C36.5467 36.7047 34.943 36.7047 31.7357 36.7047H11.8826C8.67534 36.7047 7.07167 36.7047 5.84663 36.1269C4.76906 35.6185 3.89296 34.8075 3.34391 33.8099C2.71973 32.6758 2.71973 31.1911 2.71973 28.2218V11.9629Z" fill="#CBDBFC"/>
<path d="M2.71973 9.78116C2.71973 8.84182 3.48123 8.08032 4.42059 8.08032H17.258C17.9927 8.08032 18.6444 8.55214 18.8738 9.25018L20.0087 12.7038C20.3703 13.8039 19.5508 14.9357 18.3929 14.9357H4.42059C3.48123 14.9357 2.71973 14.1741 2.71973 13.2348V9.78116Z" fill="#CBDBFC"/>
<path d="M25.8947 27.2832L39.4139 32.3259L41.2986 34.3594L31.4411 42.0511L25.8947 27.2832Z" fill="#FCF9F4"/>
<path d="M24.459 13.9071V11.5078M18.2469 16.4036L16.5742 14.707M18.2469 29.1032L16.5742 30.7998M30.7669 16.4036L32.4395 14.707M15.7857 22.7049H13.4203M23.6706 21.9051L30.1537 42.3442L34.7093 37.7231L40.4039 43.4994L44.9596 38.8784L39.265 33.1021L43.8207 28.4811L23.6706 21.9051Z" stroke="#1252D3" stroke-width="2.82483" stroke-linecap="round" stroke-linejoin="round"/>
</g>
<defs>
<clipPath id="clip0_14050_3493">
<rect width="48" height="48" fill="white"/>
</clipPath>
</defs>
</svg>
