<svg width="48" height="48" viewBox="0 0 48 48" fill="none" xmlns="http://www.w3.org/2000/svg">
<g clip-path="url(#clip0_14050_3408)">
<path opacity="0.5" d="M28.626 45.4295C36.7032 45.4295 43.251 38.8816 43.251 30.8045C43.251 22.7273 36.7032 16.1794 28.626 16.1794C20.5488 16.1794 14.001 22.7273 14.001 30.8045C14.001 38.8816 20.5488 45.4295 28.626 45.4295Z" fill="#A8C3FE"/>
<path opacity="0.5" d="M16.626 28.5544H28.626L27.876 31.1795L24.501 33.4295L19.626 32.6795L16.626 28.5544Z" fill="#A8C3FE"/>
<path d="M28.026 20.5295H28.0403M19.476 20.5295H19.4902M38.001 24.8045C38.001 32.6746 31.6211 39.0544 23.751 39.0544C15.8809 39.0544 9.50098 32.6746 9.50098 24.8045C9.50098 16.9344 15.8809 10.5544 23.751 10.5544C31.6211 10.5544 38.001 16.9344 38.001 24.8045ZM28.7385 20.5295C28.7385 20.923 28.4195 21.242 28.026 21.242C27.6325 21.242 27.3134 20.923 27.3134 20.5295C27.3134 20.136 27.6325 19.817 28.026 19.817C28.4195 19.817 28.7385 20.136 28.7385 20.5295ZM20.1885 20.5295C20.1885 20.923 19.8695 21.242 19.476 21.242C19.0825 21.242 18.7635 20.923 18.7635 20.5295C18.7635 20.136 19.0825 19.817 19.476 19.817C19.8695 19.817 20.1885 20.136 20.1885 20.5295ZM23.751 32.642C27.3142 32.642 30.1635 30.03 30.1635 27.6544H17.3385C17.3385 30.03 20.1877 32.642 23.751 32.642Z" stroke="#1252D3" stroke-width="3.84" stroke-linecap="round" stroke-linejoin="round"/>
</g>
<defs>
<clipPath id="clip0_14050_3408">
<rect width="48" height="48" fill="white"/>
</clipPath>
</defs>
</svg>
