<svg width="49" height="48" viewBox="0 0 49 48" fill="none" xmlns="http://www.w3.org/2000/svg">
<path d="M37.4212 8.17126V27.8415L13.9443 8.17126H37.4212Z" fill="#CBDBFC"/>
<path d="M23.6956 43.2205C33.0709 43.2205 40.6711 42.0996 40.6711 40.717C40.6711 39.3343 33.0709 38.2135 23.6956 38.2135C14.3202 38.2135 6.71997 39.3343 6.71997 40.717C6.71997 42.0996 14.3202 43.2205 23.6956 43.2205Z" fill="#CBDBFC"/>
<path d="M19.4829 19.3607L22.6132 22.4262L29.6563 15.5289M20.8915 31.9291L23.1766 34.9129C23.5164 35.3566 23.6863 35.5785 23.8947 35.6578C24.0771 35.7273 24.2795 35.7273 24.4619 35.6578C24.6702 35.5785 24.8402 35.3566 25.18 34.9129L27.4651 31.9291C27.9239 31.3301 28.1533 31.0306 28.4332 30.8018C28.8062 30.4969 29.2467 30.2812 29.7197 30.1718C30.0744 30.0899 30.4566 30.0899 31.2214 30.0899C33.4091 30.0899 34.503 30.0899 35.3659 29.7398C36.5165 29.2732 37.4305 28.378 37.907 27.2513C38.2644 26.4062 38.2644 25.3351 38.2644 23.1925V14.4559C38.2644 11.8807 38.2644 10.593 37.7526 9.60941C37.3025 8.74421 36.5842 8.04078 35.7007 7.59993C34.6963 7.09876 33.3815 7.09875 30.7518 7.09875H17.6047C14.9751 7.09875 13.6603 7.09876 12.6558 7.59993C11.7724 8.04078 11.0541 8.74421 10.6039 9.60941C10.0922 10.593 10.0922 11.8807 10.0922 14.4559V23.1925C10.0922 25.3351 10.0922 26.4062 10.4496 27.2513C10.9261 28.378 11.8402 29.2732 12.9907 29.7398C13.8535 30.0899 14.9475 30.0899 17.1352 30.0899C17.8999 30.0899 18.2823 30.0899 18.637 30.1718C19.1099 30.2812 19.5504 30.4969 19.9235 30.8018C20.2034 31.0306 20.4327 31.3301 20.8915 31.9291Z" stroke="#1252D3" stroke-width="2.88" stroke-linecap="round" stroke-linejoin="round"/>
</svg>
