<svg width="16" height="16" viewBox="0 0 16 16" fill="none" xmlns="http://www.w3.org/2000/svg">
<path d="M6.16665 14.6666L5.89999 12.5333C5.75554 12.4778 5.61954 12.4111 5.49199 12.3333C5.36443 12.2555 5.23932 12.1722 5.11665 12.0833L3.13332 12.9166L1.29999 9.74998L3.01665 8.44998C3.00554 8.3722 2.99999 8.29731 2.99999 8.22531V7.77531C2.99999 7.70287 3.00554 7.62776 3.01665 7.54998L1.29999 6.24998L3.13332 3.08331L5.11665 3.91665C5.23888 3.82776 5.36665 3.74442 5.49999 3.66665C5.63332 3.58887 5.76665 3.5222 5.89999 3.46665L6.16665 1.33331H9.83332L10.1 3.46665C10.2444 3.5222 10.3807 3.58887 10.5087 3.66665C10.6367 3.74442 10.7615 3.82776 10.8833 3.91665L12.8667 3.08331L14.7 6.24998L12.9833 7.54998C12.9944 7.62776 13 7.70287 13 7.77531V8.22465C13 8.29709 12.9889 8.3722 12.9667 8.44998L14.6833 9.74998L12.85 12.9166L10.8833 12.0833C10.7611 12.1722 10.6333 12.2555 10.5 12.3333C10.3667 12.4111 10.2333 12.4778 10.1 12.5333L9.83332 14.6666H6.16665ZM8.03332 10.3333C8.67777 10.3333 9.22777 10.1055 9.68332 9.64998C10.1389 9.19442 10.3667 8.64442 10.3667 7.99998C10.3667 7.35554 10.1389 6.80553 9.68332 6.34998C9.22777 5.89442 8.67777 5.66665 8.03332 5.66665C7.37777 5.66665 6.82488 5.89442 6.37465 6.34998C5.92443 6.80553 5.69954 7.35554 5.69999 7.99998C5.70043 8.64442 5.92554 9.19442 6.37532 9.64998C6.8251 10.1055 7.37777 10.3333 8.03332 10.3333Z" fill="black"/>
</svg>
