<svg width="92" height="17" viewBox="0 0 92 17" fill="none" xmlns="http://www.w3.org/2000/svg">
<g clip-path="url(#clip0_14050_1913)">
<g clip-path="url(#clip1_14050_1913)">
<g clip-path="url(#clip2_14050_1913)">
<mask id="mask0_14050_1913" style="mask-type:luminance" maskUnits="userSpaceOnUse" x="0" y="0" width="92" height="17">
<path d="M91.0315 0.0685425H0.533325V16.5664H91.0315V0.0685425Z" fill="white"/>
</mask>
<g mask="url(#mask0_14050_1913)">
<path d="M34.3345 5.37174C32.9499 5.08214 31.5291 4.77445 31.5291 3.66132C31.5291 2.54819 32.8232 2.17715 33.9273 2.17715C35.0766 2.17715 36.2169 2.43959 37.2577 2.93733L37.3572 2.98258C37.3844 3.00068 37.4205 2.98258 37.4386 2.95544L38.4341 1.19072C38.4522 1.16357 38.4341 1.12737 38.416 1.10928L38.3074 1.05497C36.7961 0.385286 35.3933 0.0685425 33.882 0.0685425C30.9499 0.0685425 29.0495 1.48937 29.0495 3.69751C29.0495 5.90567 31.1762 7.02785 33.4749 7.49845C34.9227 7.79709 36.3165 8.09573 36.3165 9.2541C36.3165 10.4124 34.9318 10.7744 33.7463 10.7744C32.5608 10.7744 31.2395 10.4124 29.9091 9.65232L29.8639 9.62515C29.8368 9.60703 29.8005 9.62515 29.7825 9.64326L28.7508 11.4714C28.7327 11.4984 28.7508 11.5347 28.7689 11.5528L28.8142 11.5799C30.3164 12.4306 32.0178 12.8831 33.7463 12.8922C36.959 12.8922 38.8052 11.5618 38.8052 9.22696C38.8052 6.32196 36.235 5.76993 34.3345 5.36269V5.37174Z" fill="white"/>
<path d="M46.2802 10.5854C46.2711 10.5582 46.2349 10.5402 46.2078 10.5491L46.0811 10.6035C45.5652 10.8026 45.2123 10.8841 44.4702 10.8841C43.7281 10.8841 43.0494 10.4224 43.0494 9.69854V5.30934H46.1263C46.1625 5.30934 46.1897 5.28219 46.1897 5.25504V3.48128C46.1897 3.44508 46.1625 3.42698 46.1354 3.42698H43.0584V1.10118C43.0584 1.06498 43.0313 1.04688 43.0041 1.04688H40.7507C40.7146 1.04688 40.6965 1.07403 40.6965 1.10118V3.40888H38.8593C38.8231 3.40888 38.8051 3.43603 38.8051 3.46318V5.24599C38.8051 5.28219 38.8321 5.30934 38.8593 5.30934H40.6965V9.93384C40.6965 11.789 41.9362 12.9022 44.0177 12.9022C46.0991 12.9022 45.9272 12.6488 46.6693 12.3501L46.805 12.2868C46.8322 12.2777 46.8503 12.2415 46.8412 12.2143L46.3073 10.5854H46.2802Z" fill="white"/>
<path d="M20.7959 0.332092H3.43832C1.79125 0.332092 0.533325 1.67146 0.533325 3.31853V12.6037C0.533325 12.6399 0.560475 12.667 0.596674 12.667H2.84103C2.87723 12.667 2.90438 12.6399 2.90438 12.6037V3.17373H21.3207V12.5946C21.3207 12.6308 21.3479 12.6579 21.3841 12.6579H23.6285C23.6646 12.6579 23.6918 12.6308 23.6918 12.5946V3.31853C23.6918 1.67146 22.4339 0.332092 20.7869 0.332092H20.7959Z" fill="white"/>
<path d="M56.7962 10.9288H56.4433C55.9998 10.9288 55.7646 10.6845 55.7646 10.232V6.55772C55.7646 4.27716 54.5337 3.17309 51.9817 3.17309C50.579 3.14594 49.1853 3.44458 47.9003 4.02377C47.8731 4.03282 47.855 4.06902 47.864 4.09617L48.4251 5.81563C48.4342 5.84278 48.4704 5.86089 48.4975 5.85183C49.7373 5.36314 50.8414 5.09165 51.6197 5.09165C52.398 5.09165 53.3844 5.25454 53.3844 6.44912V6.95591C53.3844 6.95591 53.2487 6.96496 50.4341 7.19121C47.6197 7.41745 47.2124 9.39034 47.2124 10.1867C47.2124 11.7704 48.4704 12.8835 50.2804 12.8835C51.5382 12.9016 52.76 12.4582 53.7102 11.6347C53.9183 12.0781 54.5156 12.8111 56.1446 12.8111H56.8053C56.8414 12.8111 56.8686 12.784 56.8686 12.7568V10.974C56.8686 10.9379 56.8415 10.9107 56.8143 10.9107L56.7962 10.9288ZM53.3934 10.06C52.3527 10.8021 51.6106 11.1007 50.8505 11.1007C50.0903 11.1007 49.5201 10.6935 49.5201 10.0781C49.5201 9.46271 49.5473 9.00117 50.6785 8.86543C51.8007 8.72063 53.3934 8.52154 53.3934 8.52154V10.06Z" fill="white"/>
<path d="M87.2939 7.05379C85.7735 6.79135 85.0224 6.64655 85.0224 5.93161C85.0224 5.21668 85.2215 4.94519 86.8686 4.94519C87.8821 4.94519 88.8776 5.19857 89.7645 5.68726L89.8278 5.72346C89.855 5.74157 89.8912 5.72346 89.9093 5.69632L90.7871 4.1669C90.8052 4.13975 90.7871 4.10355 90.769 4.08545L90.6967 4.04925C89.6378 3.56056 88.6152 3.15332 86.8957 3.15332C84.2622 3.15332 82.8143 4.1669 82.8143 6.01306C82.8143 7.85922 84.7691 8.61036 86.5971 8.91805C88.217 9.18955 88.8686 9.41583 88.8686 10.1308C88.8686 10.8457 88.2441 11.099 86.9048 11.099C85.5654 11.099 84.416 10.5742 83.5745 10.1398L83.5201 10.1127C83.493 10.1036 83.4567 10.1127 83.4387 10.1398L82.5608 11.6873C82.5427 11.7144 82.5608 11.7506 82.579 11.7688L82.6332 11.7959C84.0088 12.5109 85.4749 12.8819 86.8957 12.8819C89.656 12.8819 91.0496 11.9045 91.0496 9.98595C91.0496 7.88637 89.2034 7.37958 87.312 7.05379H87.2939Z" fill="white"/>
<path d="M63.0946 3.17322C62.0267 3.17322 61.1218 3.52617 60.253 4.28635V3.47186C60.253 3.43566 60.2258 3.41757 60.1986 3.41757H57.9452C57.909 3.41757 57.891 3.44472 57.891 3.47186V16.5126C57.891 16.5489 57.9181 16.576 57.9452 16.576H60.1986C60.2349 16.576 60.262 16.5489 60.262 16.5217V11.8248C61.0946 12.5127 62.1263 12.9108 63.1037 12.9108C65.6195 12.9108 67.3752 10.9108 67.3752 8.05107C67.3752 5.32708 65.5019 3.19132 63.1127 3.19132L63.0946 3.17322ZM62.4973 10.8836C61.6738 10.8836 60.977 10.4946 60.2439 9.62576V6.3678C61.004 5.55333 61.701 5.19133 62.4973 5.19133C64.0086 5.19133 64.986 6.30446 64.986 8.03298C64.986 9.76152 63.9815 10.8746 62.4973 10.8746V10.8836Z" fill="white"/>
<path d="M70.9497 0.332092H68.7054C68.6704 0.332092 68.6421 0.360454 68.6421 0.395441V12.6037C68.6421 12.6386 68.6704 12.667 68.7054 12.667H70.9497C70.9848 12.667 71.0131 12.6386 71.0131 12.6037V0.395441C71.0131 0.360454 70.9848 0.332092 70.9497 0.332092Z" fill="white"/>
<path d="M80.6874 10.1596C80.6694 10.1324 80.6331 10.1234 80.606 10.1324L80.5336 10.1777C79.7643 10.5849 79.0766 10.9922 77.6195 10.9922C76.1625 10.9922 74.9679 10.1143 74.7598 8.64827H81.4386C81.4748 8.64827 81.5019 8.62112 81.5019 8.59397V7.95143C81.5019 5.01024 79.7462 3.19122 76.9227 3.19122C74.0992 3.19122 72.3254 5.21838 72.3254 8.12338C72.3254 11.0284 74.3706 12.9108 77.4205 12.9108C78.8684 12.9289 80.2893 12.5488 81.529 11.7976L81.5653 11.7704C81.5924 11.7523 81.6015 11.7162 81.5834 11.689L80.7055 10.1687L80.6874 10.1596ZM76.9318 5.10074C78.1626 5.10074 78.9227 5.74327 79.1308 6.95596H74.7688C74.977 5.76138 75.7462 5.10074 76.9408 5.10074H76.9318Z" fill="white"/>
</g>
</g>
</g>
</g>
<defs>
<clipPath id="clip0_14050_1913">
<rect width="91.4925" height="16.635" fill="white"/>
</clipPath>
<clipPath id="clip1_14050_1913">
<rect width="91.4925" height="16.635" fill="white"/>
</clipPath>
<clipPath id="clip2_14050_1913">
<rect width="91.4925" height="16.635" fill="white"/>
</clipPath>
</defs>
</svg>
