<svg width="67" height="36" viewBox="0 0 67 36" fill="none" xmlns="http://www.w3.org/2000/svg">
<g clip-path="url(#clip0_14050_1872)">
<g clip-path="url(#clip1_14050_1872)">
<g clip-path="url(#clip2_14050_1872)">
<mask id="mask0_14050_1872" style="mask-type:luminance" maskUnits="userSpaceOnUse" x="0" y="0" width="66" height="35">
<path d="M65.6967 0.184753H0V34.9334H65.6967V0.184753Z" fill="white"/>
</mask>
<g mask="url(#mask0_14050_1872)">
<path d="M32.3862 23.433C31.4683 23.1976 30.5261 23.0705 29.5789 23.0545C26.9236 23.0545 25.3208 24.4951 25.3208 26.6377C25.3208 28.5331 26.659 29.4792 28.265 29.9951L28.8733 30.1934C29.588 30.4193 30.1568 30.755 30.1568 31.3349C30.1568 31.982 29.4968 32.4032 28.0642 32.4032C27.1435 32.3787 26.2298 32.2361 25.3452 31.979V34.613C26.3698 34.8098 27.4103 34.9119 28.4535 34.9182C30.6587 34.9182 33.1801 33.9506 33.1801 31.0725C33.1801 29.6776 32.3284 28.3927 30.4427 27.7975L29.6488 27.5411C29.1743 27.3916 28.3288 27.1505 28.3288 26.4516C28.3288 25.9021 28.9554 25.5145 30.1112 25.5145C30.8721 25.5441 31.6273 25.6608 32.3619 25.8625L32.3862 23.433ZM56.7183 29C56.7141 29.5908 56.5358 30.1669 56.2057 30.656C55.8756 31.145 55.4087 31.525 54.8636 31.7482C54.3186 31.9713 53.72 32.0275 53.1432 31.9097C52.5664 31.7919 52.0373 31.5054 51.6225 31.0862C51.2079 30.6671 50.9261 30.1341 50.8128 29.5544C50.6995 28.9748 50.7597 28.3745 50.986 27.8292C51.2121 27.2839 51.5942 26.818 52.0839 26.4903C52.5736 26.1625 53.149 25.9876 53.7377 25.9876C54.1319 25.9839 54.5229 26.0594 54.8876 26.2098C55.2523 26.3601 55.5833 26.5822 55.8611 26.863C56.1389 27.1438 56.3579 27.4775 56.5051 27.8446C56.6523 28.2115 56.7249 28.6045 56.7183 29ZM53.7377 23.0698C50.2277 23.0698 47.7093 25.7282 47.7093 29C47.7093 32.272 50.2277 34.9335 53.7377 34.9335C57.2476 34.9335 59.772 32.2781 59.772 29C59.772 25.7221 57.2506 23.0698 53.7377 23.0698ZM21.4611 34.7289H18.5808V23.2743H21.4611" fill="#FEFCFA"/>
<path d="M14.6205 23.4819C13.7704 23.2117 12.8844 23.0728 11.9926 23.0699C8.48881 23.0699 5.90961 25.5787 5.90961 29.0002C5.90961 32.6903 8.75038 34.9336 11.9926 34.9336C12.8839 34.9274 13.7693 34.7896 14.6205 34.5246V31.4511C13.873 31.8555 13.0365 32.0654 12.1873 32.0615C10.2681 32.0615 9.0302 30.7064 9.0302 29.0093C9.0302 27.2543 10.3228 25.9572 12.1873 25.9572C13.0367 25.9519 13.8736 26.1619 14.6205 26.5677" fill="#FEFCFA"/>
<path d="M44.6885 23.4817C43.8383 23.2114 42.9522 23.0724 42.0606 23.0696C38.5567 23.0696 35.9775 25.5785 35.9775 29C35.9775 32.69 38.8183 34.9333 42.0606 34.9333C42.9518 34.9272 43.8372 34.7894 44.6885 34.5243V31.4508C43.941 31.8552 43.1043 32.065 42.2552 32.0613C40.336 32.0613 39.0981 30.7061 39.0981 29.0091C39.0981 27.2541 40.3908 25.957 42.2552 25.957C43.1045 25.9517 43.9415 26.1617 44.6885 26.5674" fill="#FEFCFA"/>
<path d="M18.5715 1.61365C18.5715 1.23319 18.4209 0.868318 18.1528 0.599296C17.8848 0.330274 17.5211 0.179138 17.142 0.179138C16.7628 0.179138 16.3992 0.330274 16.1311 0.599296C15.863 0.868318 15.7125 1.23319 15.7125 1.61365V16.8255C15.7125 17.014 15.7495 17.2004 15.8213 17.3745C15.8931 17.5486 15.9984 17.7067 16.1311 17.8399C16.2639 17.9731 16.4215 18.0788 16.5949 18.1509C16.7684 18.2229 16.9542 18.26 17.142 18.26C17.3297 18.26 17.5155 18.2229 17.689 18.1509C17.8625 18.0788 18.02 17.9731 18.1528 17.8399C18.2856 17.7067 18.3908 17.5486 18.4626 17.3745C18.5345 17.2004 18.5715 17.014 18.5715 16.8255V1.61365ZM10.7153 7.01289C10.7153 6.63243 10.5646 6.26756 10.2966 5.99854C10.0285 5.72952 9.66484 5.57839 9.28575 5.57839C8.90661 5.57839 8.54302 5.72952 8.27492 5.99854C8.00684 6.26756 7.85623 6.63243 7.85623 7.01289V13.9687C7.85623 14.1571 7.89321 14.3437 7.96505 14.5177C8.03689 14.6917 8.14219 14.8498 8.27492 14.9831C8.40767 15.1163 8.56526 15.222 8.7387 15.2941C8.91213 15.3662 9.09801 15.4032 9.28575 15.4032C9.47345 15.4032 9.65939 15.3662 9.83276 15.2941C10.0062 15.222 10.1638 15.1163 10.2966 14.9831C10.4293 14.8498 10.5346 14.6917 10.6065 14.5177C10.6783 14.3437 10.7153 14.1571 10.7153 13.9687V7.01289ZM2.85902 10.9593C2.85902 10.5789 2.70842 10.214 2.44033 9.945C2.17224 9.67597 1.80864 9.52478 1.42951 9.52478C1.05038 9.52478 0.68678 9.67597 0.418695 9.945C0.150609 10.214 0 10.5789 0 10.9593V13.9687C0 14.3492 0.150609 14.7141 0.418695 14.9831C0.68678 15.2521 1.05038 15.4032 1.42951 15.4032C1.80864 15.4032 2.17224 15.2521 2.44033 14.9831C2.70842 14.7141 2.85902 14.3492 2.85902 13.9687" fill="#FEFCFA"/>
<path d="M15.7109 1.61633C15.7109 1.23588 15.8615 0.871004 16.1296 0.601981C16.3976 0.332959 16.7613 0.181824 17.1404 0.181824C17.5196 0.181824 17.8831 0.332959 18.1512 0.601981C18.4193 0.871004 18.5699 1.23588 18.5699 1.61633V16.8282C18.5699 17.2087 18.4193 17.5736 18.1512 17.8426C17.8831 18.1116 17.5196 18.2627 17.1404 18.2627C16.7613 18.2627 16.3976 18.1116 16.1296 17.8426C15.8615 17.5736 15.7109 17.2087 15.7109 16.8282V1.61633ZM23.5671 7.01558C23.5671 6.63512 23.7178 6.27025 23.9858 6.00122C24.2539 5.73221 24.6175 5.58107 24.9966 5.58107C25.3757 5.58107 25.7394 5.73221 26.0075 6.00122C26.2755 6.27025 26.4261 6.63512 26.4261 7.01558V13.9714C26.4261 14.3519 26.2755 14.7168 26.0075 14.9858C25.7394 15.2548 25.3757 15.4059 24.9966 15.4059C24.6175 15.4059 24.2539 15.2548 23.9858 14.9858C23.7178 14.7168 23.5671 14.3519 23.5671 13.9714V7.01558ZM31.4203 10.962C31.4372 10.5926 31.5955 10.244 31.862 9.98855C32.1285 9.7332 32.4828 9.59069 32.8513 9.59069C33.2199 9.59069 33.5742 9.7332 33.8407 9.98855C34.1072 10.244 34.2654 10.5926 34.2824 10.962V13.9714C34.2654 14.3408 34.1072 14.6894 33.8407 14.9449C33.5742 15.2002 33.2199 15.3427 32.8513 15.3427C32.4828 15.3427 32.1285 15.2002 31.862 14.9449C31.5955 14.6894 31.4372 14.3408 31.4203 13.9714" fill="#FEFCFA"/>
<path d="M47.1253 1.61615C47.1253 1.2357 47.2759 0.870821 47.544 0.601798C47.8121 0.332776 48.1757 0.181641 48.5548 0.181641C48.9339 0.181641 49.2976 0.332776 49.5657 0.601798C49.8337 0.870821 49.9843 1.2357 49.9843 1.61615V16.8281C49.9843 17.2085 49.8337 17.5734 49.5657 17.8424C49.2976 18.1114 48.9339 18.2626 48.5548 18.2626C48.1757 18.2626 47.8121 18.1114 47.544 17.8424C47.2759 17.5734 47.1253 17.2085 47.1253 16.8281V1.61615ZM54.9816 7.0154C54.9816 6.63494 55.1321 6.27007 55.4002 6.00104C55.6683 5.73202 56.0319 5.58089 56.4111 5.58089C56.7902 5.58089 57.1537 5.73202 57.4218 6.00104C57.6899 6.27007 57.8406 6.63494 57.8406 7.0154V13.9712C57.8406 14.3517 57.6899 14.7165 57.4218 14.9856C57.1537 15.2546 56.7902 15.4058 56.4111 15.4058C56.0319 15.4058 55.6683 15.2546 55.4002 14.9856C55.1321 14.7165 54.9816 14.3517 54.9816 13.9712V7.0154ZM62.8377 10.9618C62.8377 10.5814 62.9883 10.2165 63.2564 9.94746C63.5245 9.67844 63.8881 9.52734 64.2673 9.52734C64.6464 9.52734 65.01 9.67844 65.2781 9.94746C65.5462 10.2165 65.6968 10.5814 65.6968 10.9618V13.9712C65.6968 14.3517 65.5462 14.7165 65.2781 14.9856C65.01 15.2546 64.6464 15.4058 64.2673 15.4058C63.8881 15.4058 63.5245 15.2546 63.2564 14.9856C62.9883 14.7165 62.8377 14.3517 62.8377 13.9712" fill="#FEFCFA"/>
<path d="M49.986 1.61615C49.986 1.2357 49.8354 0.870821 49.5672 0.601798C49.2992 0.332776 48.9356 0.181641 48.5565 0.181641C48.1773 0.181641 47.8137 0.332776 47.5456 0.601798C47.2775 0.870821 47.127 1.2357 47.127 1.61615V16.8281C47.127 17.2085 47.2775 17.5734 47.5456 17.8424C47.8137 18.1114 48.1773 18.2626 48.5565 18.2626C48.9356 18.2626 49.2992 18.1114 49.5672 17.8424C49.8354 17.5734 49.986 17.2085 49.986 16.8281V1.61615ZM42.1297 7.0154C42.1297 6.63494 41.9791 6.27007 41.7111 6.00104C41.443 5.73202 41.0793 5.58089 40.7002 5.58089C40.3211 5.58089 39.9575 5.73202 39.6894 6.00104C39.4213 6.27007 39.2707 6.63494 39.2707 7.0154V13.9712C39.2707 14.3517 39.4213 14.7165 39.6894 14.9856C39.9575 15.2546 40.3211 15.4058 40.7002 15.4058C41.0793 15.4058 41.443 15.2546 41.7111 14.9856C41.9791 14.7165 42.1297 14.3517 42.1297 13.9712V7.0154ZM34.2765 10.9618C34.2595 10.5924 34.1014 10.2438 33.8349 9.9884C33.5684 9.73296 33.214 9.59046 32.8455 9.59046C32.477 9.59046 32.1227 9.73296 31.8562 9.9884C31.5896 10.2438 31.4315 10.5924 31.4145 10.9618V13.9712C31.4315 14.3407 31.5896 14.6893 31.8562 14.9447C32.1227 15.2001 32.477 15.3426 32.8455 15.3426C33.214 15.3426 33.5684 15.2001 33.8349 14.9447C34.1014 14.6893 34.2595 14.3407 34.2765 13.9712" fill="#FEFCFA"/>
</g>
</g>
</g>
</g>
<defs>
<clipPath id="clip0_14050_1872">
<rect width="66.54" height="35.1183" fill="white"/>
</clipPath>
<clipPath id="clip1_14050_1872">
<rect width="66.54" height="35.1183" fill="white"/>
</clipPath>
<clipPath id="clip2_14050_1872">
<rect width="66.54" height="35.1183" fill="white"/>
</clipPath>
</defs>
</svg>
