<svg width="61" height="32" viewBox="0 0 61 32" fill="none" xmlns="http://www.w3.org/2000/svg">
<g clip-path="url(#clip0_14050_1946)">
<g clip-path="url(#clip1_14050_1946)">
<g clip-path="url(#clip2_14050_1946)">
<mask id="mask0_14050_1946" style="mask-type:luminance" maskUnits="userSpaceOnUse" x="0" y="0" width="61" height="32">
<path d="M60.1466 0.236877H0.422363V31.1849H60.1466V0.236877Z" fill="white"/>
</mask>
<g mask="url(#mask0_14050_1946)">
<path d="M27.1436 12.5455C27.153 12.2235 27.0513 11.9093 26.8586 11.6638C26.6658 11.4184 26.3956 11.2595 26.1005 11.2179H30.4672C30.1721 11.2595 29.9018 11.4184 29.7091 11.6638C29.5163 11.9093 29.4146 12.2235 29.424 12.5455V24.205C29.4133 24.5274 29.5145 24.8423 29.7076 25.0881C29.9005 25.3337 30.1715 25.4923 30.4672 25.5326H26.1005C26.396 25.4923 26.667 25.3337 26.86 25.0881C27.0531 24.8423 27.1542 24.5274 27.1436 24.205V12.5455Z" fill="#FEFCFA"/>
<path d="M3.75148 18.5403H6.79762C7.08554 18.5302 7.36578 18.6418 7.57908 18.8514C7.79239 19.0611 7.92203 19.3523 7.94061 19.6635V17.0865H3.75148V12.6654H7.8019C8.09163 12.6555 8.37345 12.7687 8.58705 12.9809C8.80065 13.1931 8.92908 13.4874 8.94489 13.8007V11.2177H0.422363C0.717952 11.258 0.988913 11.4166 1.18195 11.6622C1.37499 11.9079 1.47613 12.2229 1.46549 12.5453V24.2048C1.47873 24.5278 1.37852 24.8444 1.18499 25.0907C0.991473 25.3369 0.719001 25.4947 0.422363 25.5324H4.80015C4.50355 25.4934 4.23124 25.3355 4.03706 25.0896C3.84288 24.8438 3.74097 24.5281 3.75148 24.2048V18.5403Z" fill="#FEFCFA"/>
<path d="M12.493 21.6942C12.4928 22.4189 12.7545 23.1149 13.2221 23.6335C13.6897 24.1521 14.3261 24.4521 14.9954 24.4693C15.6676 24.446 16.3053 24.1412 16.7741 23.6191C17.2429 23.0969 17.5064 22.3983 17.5089 21.6701V12.5455C17.5179 12.2216 17.4148 11.9058 17.2197 11.6602C17.0246 11.4146 16.7517 11.2568 16.4547 11.2179H20.8324C20.5353 11.2568 20.2624 11.4146 20.0673 11.6602C19.8722 11.9058 19.7691 12.2216 19.7782 12.5455V21.4178C19.7782 24.2531 17.6531 25.917 15.012 25.917C12.371 25.917 10.2126 24.2651 10.2126 21.4178V12.5455C10.2219 12.2235 10.1203 11.9093 9.92755 11.6638C9.73476 11.4184 9.46454 11.2595 9.16943 11.2179H13.5361C13.2405 11.2582 12.9695 11.4168 12.7766 11.6625C12.5835 11.9082 12.4823 12.2231 12.493 12.5455V21.6942Z" fill="#FEFCFA"/>
<path d="M24.5913 12.5455C24.5823 12.2216 24.6854 11.9058 24.8805 11.6602C25.0755 11.4146 25.3485 11.2568 25.6455 11.2179H21.2677C21.5648 11.2568 21.8378 11.4146 22.0328 11.6602C22.2279 11.9058 22.3311 12.2216 22.3219 12.5455V27.1185C22.2861 27.9054 22.0958 28.6751 21.7638 29.3763C21.4319 30.0775 20.9658 30.6941 20.3966 31.1852C20.3966 31.1852 24.6079 30.5364 24.6079 26.2534V12.5455" fill="#FEFCFA"/>
<path d="M51.8118 21.6942C51.779 22.0705 51.8192 22.4502 51.9297 22.8088C52.0402 23.1675 52.2188 23.4971 52.4538 23.7768C52.6888 24.0563 52.9752 24.2797 53.2946 24.4326C53.6141 24.5854 53.9595 24.6644 54.3086 24.6644C54.6579 24.6644 55.0032 24.5854 55.3226 24.4326C55.642 24.2797 55.9284 24.0563 56.1635 23.7768C56.3985 23.4971 56.5771 23.1675 56.6876 22.8088C56.7981 22.4502 56.8383 22.0705 56.8055 21.6942V12.5455C56.8149 12.2235 56.7133 11.9093 56.5204 11.6638C56.3276 11.4184 56.0574 11.2595 55.7623 11.2179H60.129C59.8339 11.2595 59.5638 11.4184 59.3709 11.6638C59.1781 11.9093 59.0766 12.2235 59.0859 12.5455V21.4178C59.0859 24.2531 56.9497 25.917 54.3197 25.917C51.6897 25.917 49.537 24.2651 49.537 21.4178V12.5455C49.546 12.2216 49.4429 11.9058 49.2478 11.6602C49.0527 11.4146 48.7798 11.2568 48.4827 11.2179H52.8604C52.5634 11.2568 52.2905 11.4146 52.0954 11.6602C51.9003 11.9058 51.7972 12.2216 51.8062 12.5455V21.6942" fill="#FEFCFA"/>
<path d="M47.4581 13.5606C46.7479 12.245 45.0668 12.4132 45.0668 12.4132C42.398 12.4132 42.5199 14.6658 42.5199 14.6658C42.5199 14.6658 42.3424 15.7891 43.6741 16.57L46.354 18.1379C48.9396 19.6697 48.64 21.8622 48.64 21.8622C48.64 21.8622 48.751 25.935 43.3633 25.935C42.5403 25.9513 41.7194 25.8359 40.9275 25.5926L40.1508 22.9134C40.9275 24.265 43.38 24.4692 43.38 24.4692C46.4039 24.3131 46.4261 22.0664 46.4261 22.0664C46.4261 22.0664 46.5704 21.0873 45.383 20.3664L42.7142 18.7986C39.94 17.1587 40.2562 14.9541 40.2562 14.9541C40.2562 14.9541 40.1896 10.9535 44.9669 10.9535C44.9669 10.9535 47.1142 11.0136 47.4581 11.386V13.5906" fill="#FEFCFA"/>
<path d="M31.2441 11.2179L30.5228 13.849C30.6537 13.5243 30.8609 13.2426 31.1237 13.0318C31.3866 12.821 31.696 12.6884 32.021 12.6476H34.3347V24.205C34.3454 24.5274 34.2442 24.8423 34.0512 25.0881C33.8581 25.3337 33.5872 25.4923 33.2915 25.5326H37.6582C37.3627 25.4923 37.0917 25.3337 36.8987 25.0881C36.7056 24.8423 36.6045 24.5274 36.6151 24.205V12.6656H38.5461C38.6871 12.6648 38.8269 12.6943 38.9575 12.7521C39.0881 12.81 39.2068 12.8954 39.3068 13.003C39.4068 13.1108 39.4862 13.2389 39.5404 13.3799C39.5945 13.5209 39.6224 13.6722 39.6224 13.825L40.3327 11.2179H31.2441Z" fill="#FEFCFA"/>
<path d="M26.5901 6.24395C26.894 6.5779 27.2696 6.82522 27.6834 6.96385C28.0971 7.10247 28.5361 7.12811 28.9611 7.03844C29.3862 6.94879 29.7843 6.74664 30.1196 6.45002C30.455 6.15339 30.7174 5.77151 30.8834 5.33844C31.0494 4.90537 31.1138 4.43456 31.0708 3.96799C31.0279 3.50144 30.879 3.05362 30.6375 2.66449C30.3958 2.27536 30.069 1.95702 29.6861 1.73783C29.3033 1.51865 28.8763 1.40545 28.4432 1.40831C28.4432 1.40831 26.4235 1.20408 25.5081 3.99733V1.88888C25.8483 1.38779 26.2906 0.978185 26.8005 0.691739C27.3105 0.405292 27.8744 0.249684 28.4487 0.236952C28.945 0.216107 29.44 0.303919 29.9041 0.495127C30.3682 0.686335 30.792 0.977002 31.1498 1.34972C31.5077 1.72243 31.7924 2.16952 31.9869 2.66421C32.1814 3.15889 32.2816 3.69097 32.2816 4.2286C32.2816 4.76622 32.1814 5.29831 31.9869 5.79299C31.7924 6.28767 31.5077 6.73476 31.1498 7.10748C30.792 7.4802 30.3682 7.77087 29.9041 7.96207C29.44 8.15328 28.945 8.24109 28.4487 8.22024C27.4672 8.22225 26.5244 7.80576 25.8243 7.06089L24.5482 5.5171C24.3712 5.32386 24.1602 5.17111 23.9276 5.06792C23.695 4.96473 23.4457 4.91319 23.1943 4.9164C22.6867 4.9164 22.1997 5.13474 21.8408 5.52339C21.4817 5.91204 21.2801 6.43917 21.2801 6.98881C21.2801 7.53845 21.4817 8.06557 21.8408 8.45423C22.1997 8.84288 22.6867 9.06122 23.1943 9.06122C23.1943 9.06122 24.6148 9.26548 25.5191 7.37326V9.04921C25.1992 9.47028 24.7864 9.79734 24.3188 10C23.8513 10.2027 23.3441 10.2745 22.8441 10.2088C22.3442 10.1431 21.8676 9.94197 21.4584 9.62406C21.0491 9.30624 20.7206 8.88178 20.503 8.39004C20.2854 7.89829 20.1859 7.3551 20.2135 6.81067C20.2411 6.26624 20.395 5.73813 20.6611 5.27516C20.9271 4.81218 21.2966 4.42928 21.7355 4.16184C22.1745 3.89439 22.6685 3.75105 23.1721 3.74504C23.5663 3.74254 23.957 3.8246 24.3218 3.98647C24.6866 4.14834 25.0181 4.38682 25.2972 4.68813L26.5901 6.24395Z" fill="#FEFCFA"/>
</g>
</g>
</g>
</g>
<defs>
<clipPath id="clip0_14050_1946">
<rect width="60.995" height="31.4217" fill="white"/>
</clipPath>
<clipPath id="clip1_14050_1946">
<rect width="60.995" height="31.4217" fill="white"/>
</clipPath>
<clipPath id="clip2_14050_1946">
<rect width="60.995" height="31.4217" fill="white"/>
</clipPath>
</defs>
</svg>
