<svg width="61" height="12" viewBox="0 0 61 12" fill="none" xmlns="http://www.w3.org/2000/svg">
<g clip-path="url(#clip0_14050_1928)">
<g clip-path="url(#clip1_14050_1928)">
<g clip-path="url(#clip2_14050_1928)">
<mask id="mask0_14050_1928" style="mask-type:luminance" maskUnits="userSpaceOnUse" x="0" y="0" width="60" height="11">
<path d="M59.6041 0.221558H0.241821V10.8684H59.6041V0.221558Z" fill="white"/>
</mask>
<g mask="url(#mask0_14050_1928)">
<path d="M21.4246 10.7497C19.2828 10.7497 17.2946 10.1074 15.9675 8.91623C14.9649 8.01629 14.4831 6.79391 14.4831 5.53578C14.4831 4.29297 14.9857 3.06215 15.9674 2.16697C17.1999 1.04372 19.3759 0.340271 21.4246 0.340271C23.6918 0.340271 25.5064 0.911337 26.8936 2.17005C27.8805 3.06572 28.3576 4.29107 28.3576 5.53589C28.3576 6.7425 27.8513 8.02746 26.8936 8.91623C25.6018 10.1151 23.5718 10.7497 21.4246 10.7497V9.37681C22.5614 9.37681 23.6159 8.98426 24.3524 8.25148C25.0837 7.5237 25.4244 6.62912 25.4244 5.53578C25.4244 4.48839 25.0569 3.50915 24.3524 2.81461C23.6257 2.09894 22.5461 1.69622 21.4246 1.69622C20.2996 1.69622 19.2193 2.09479 18.4921 2.81461C17.7914 3.50891 17.4229 4.491 17.4229 5.53578C17.4229 6.57735 17.7957 7.55885 18.4921 8.2516C19.2199 8.97559 20.2965 9.37681 21.4246 9.37681V10.7497ZM5.77029 0.345258C4.6246 0.345258 3.32302 0.559555 2.2171 1.05345C1.19643 1.50888 0.360962 2.24545 0.360962 3.46653C0.360487 4.56628 1.05941 5.21036 1.04042 5.19255C1.33771 5.4662 1.81629 5.93221 3.06753 6.20586C3.62672 6.32815 4.82228 6.51597 6.01285 6.64039C7.19463 6.76505 8.35766 6.88354 8.83137 7.00345C9.20773 7.09926 9.83993 7.22974 9.83993 7.93901C9.83993 8.64542 9.17389 8.86102 9.05813 8.9078C8.94249 8.95351 8.14348 9.32015 6.70715 9.32015C5.6467 9.32015 4.37184 9.00123 3.90715 8.83502C3.37146 8.64435 2.80954 8.39218 2.28537 7.75189C2.15501 7.59316 1.94938 7.15661 1.94938 6.72434H0.649463V10.3668H2.09434V9.87465C2.09434 9.81865 2.16439 9.58825 2.40694 9.69777C2.70874 9.83491 3.59466 10.1877 4.52096 10.3811C5.28044 10.5399 5.77018 10.6537 6.71439 10.6537C8.25496 10.6537 9.08259 10.4028 9.65473 10.2394C10.1937 10.0851 10.8597 9.80793 11.4008 9.37653C11.6938 9.14323 12.3364 8.54521 12.3364 7.45971C12.3364 6.41779 11.7772 5.7711 11.5804 5.57437C11.3125 5.30629 10.9852 5.09852 10.644 4.93836C10.3469 4.7985 9.87791 4.63051 9.4942 4.53659C8.74945 4.35376 7.06546 4.12818 6.26015 4.04388C5.41566 3.95567 3.95072 3.83434 3.36564 3.65328C3.18827 3.59832 2.82663 3.42604 2.82663 3.00623C2.82663 2.70764 2.99202 2.45452 3.31886 2.24996C3.83769 1.92489 4.88568 1.72282 5.97806 1.72282C7.26955 1.71807 8.36324 2.01334 9.05896 2.3244C9.2956 2.43007 9.57248 2.5818 9.79234 2.76131C10.0405 2.96361 10.3888 3.38402 10.5148 3.97039H11.6818V0.799735H10.3787V1.16826C10.3787 1.28721 10.2558 1.4418 10.0235 1.31405C9.44032 1.0081 7.79169 0.347988 5.77029 0.345258ZM34.3276 0.921429L40.6844 6.6582L40.619 2.79573C40.6126 2.28925 40.5193 2.0778 39.9715 2.0778H38.7763V0.922378H44.2115V2.0778H43.0457C42.4869 2.0778 42.4516 2.25649 42.4449 2.79573L42.5435 10.176H40.6821L33.3603 3.64141L33.3619 8.27903C33.3683 8.78314 33.3919 9.02059 33.9113 9.02059H35.2167V10.1756H29.8789V9.02071H31.1266C31.5928 9.02071 31.5743 8.57632 31.5743 8.2528V2.83967C31.5743 2.49026 31.5252 2.07863 30.7934 2.07863H29.781V0.921429H34.3276ZM50.4224 9.01845C50.4734 9.01845 50.7002 9.01192 50.7441 8.99851C50.8696 8.95932 50.9547 8.86981 50.9942 8.77649C51.0108 8.73731 51.0191 8.56397 51.0191 8.52633L51.0201 6.70035C51.0201 6.65642 51.0168 6.63743 50.9422 6.5396C50.8604 6.43274 47.6127 2.75228 47.464 2.59022C47.2794 2.38899 46.9553 2.07792 46.4628 2.07792H45.3334V0.922022H51.7074V2.0765H50.9389C50.7612 2.0765 50.6431 2.24509 50.7949 2.43243C50.7949 2.43243 52.9395 4.99772 52.9598 5.02455C52.9798 5.05186 52.9968 5.05839 53.0241 5.03345C53.0509 5.00793 55.2224 2.45594 55.2395 2.43576C55.3428 2.31205 55.2728 2.0778 55.0502 2.0778H54.2619V0.922022H59.4858V2.0778H58.3188C57.8954 2.0778 57.7231 2.15616 57.4046 2.51625C57.2589 2.68104 53.9766 6.42764 53.8873 6.52915C53.8404 6.58222 53.8445 6.65619 53.8445 6.70011V8.52586C53.8445 8.5629 53.8528 8.73648 53.8694 8.77542C53.909 8.86922 53.9946 8.95873 54.1199 8.99743C54.1639 9.01097 54.3875 9.01762 54.4385 9.01762H55.6323V10.1733H49.2912V9.0175L50.4224 9.01845Z" fill="#FEFCFA"/>
</g>
</g>
</g>
</g>
<defs>
<clipPath id="clip0_14050_1928">
<rect width="60.0708" height="11.09" fill="white"/>
</clipPath>
<clipPath id="clip1_14050_1928">
<rect width="60.0708" height="11.09" fill="white"/>
</clipPath>
<clipPath id="clip2_14050_1928">
<rect width="60.0708" height="11.09" fill="white"/>
</clipPath>
</defs>
</svg>
