<svg width="58" height="58" viewBox="0 0 58 58" fill="none" xmlns="http://www.w3.org/2000/svg">
<g clip-path="url(#clip0_14050_1936)">
<g clip-path="url(#clip1_14050_1936)">
<g clip-path="url(#clip2_14050_1936)">
<mask id="mask0_14050_1936" style="mask-type:luminance" maskUnits="userSpaceOnUse" x="0" y="0" width="58" height="58">
<path d="M57.1322 0.144409H0.122681V57.1539H57.1322V0.144409Z" fill="white"/>
</mask>
<g mask="url(#mask0_14050_1936)">
<path d="M45.5197 28.6492C45.5197 37.9843 37.963 45.5409 28.6279 45.5409V28.6492H45.5197ZM28.6279 11.7574V28.6492H11.7362C11.7362 19.314 19.2927 11.7574 28.6279 11.7574Z" fill="#FEFCFA"/>
<path d="M28.6275 11.7574V12.6836C37.43 12.6836 44.593 19.8449 44.593 28.6492H45.5191C45.5191 19.3207 37.9559 11.7574 28.6275 11.7574ZM28.6275 44.6147C19.8249 44.6147 12.6619 37.4534 12.6619 28.6492H11.7357C11.7357 37.9776 19.2989 45.5409 28.6275 45.5409V44.6147ZM28.6275 0.144409C12.8851 0.144409 0.122681 12.9068 0.122681 28.6492C0.122681 44.3915 12.8851 57.1539 28.6275 57.1539C44.3697 57.1539 57.1322 44.3915 57.1322 28.6492C57.1322 12.9068 44.3697 0.144409 28.6275 0.144409ZM55.2786 28.6492C55.2786 43.3675 43.3474 55.3003 28.6275 55.3003C13.9074 55.3003 1.9763 43.3675 1.9763 28.6492C1.9763 13.9309 13.9091 1.99802 28.6275 1.99802C43.3458 1.99802 55.2786 13.9309 55.2786 28.6492Z" fill="#FEFCFA"/>
<path d="M16.4447 14.8981C17.3555 13.9453 17.8713 12.8445 16.9605 11.7935C16.4648 11.2232 15.6326 11.0984 14.9427 11.3795L14.8741 11.4061L14.8959 11.3462C14.998 11.0751 15.0633 10.2105 14.3215 9.61349C13.9599 9.32256 13.5061 9.21443 13.0473 9.26101C12.1917 9.34742 11.5337 9.9278 9.74197 11.9116C9.20118 12.5103 8.4142 13.4548 7.94202 14.0667L12.8632 18.7028C14.494 16.9102 15.1588 16.2434 16.4447 14.8981ZM10.0233 13.764C11.0145 12.5601 12.0678 11.4676 12.545 11.0353C12.6957 10.8989 12.8597 10.7626 13.059 10.7094C13.3822 10.6212 13.7154 10.849 13.7907 11.1783C13.8661 11.5092 13.6568 11.8234 13.424 12.0829C12.8999 12.6699 10.9778 14.667 10.9778 14.667L10.0233 13.764ZM11.9505 15.5799C11.9505 15.5799 13.8225 13.6144 14.4337 12.9859C14.6766 12.7364 14.8323 12.5851 14.9996 12.5036C15.2157 12.3988 15.4517 12.3772 15.6627 12.5169C15.8704 12.6549 15.9658 12.8927 15.9139 13.1288C15.8519 13.4099 15.6209 13.6776 15.43 13.8821C15.1721 14.1565 12.9519 16.5161 12.9486 16.5194L11.9505 15.5799ZM29.1887 9.36904L30.7643 5.86374L30.8647 5.55278L30.8363 5.87703L31.0021 10.5613C31.5546 10.6129 32.1256 10.6894 32.6882 10.7826L32.432 3.845C31.645 3.75854 30.8614 3.69701 30.0778 3.66376L28.5256 7.49003L28.4704 7.77438L28.4151 7.49003L26.8646 3.66376C26.081 3.69701 25.2974 3.75854 24.5103 3.845L24.2542 10.7826C24.8168 10.6894 25.3877 10.6145 25.9403 10.5613L26.1061 5.87703L26.0776 5.55278L26.1781 5.86374L27.7537 9.36904H29.1887ZM42.2742 16.6209C42.661 17.0332 43.2186 17.6984 43.5317 18.1025L49.2984 14.4675C49.0104 14.0933 48.5516 13.5246 48.2084 13.1238L44.5564 15.5217L44.307 15.7345L44.4929 15.4652L46.1052 12.2692L44.965 11.1367L41.7451 12.7381L41.4739 12.9226L41.6899 12.6749L44.106 9.0498C43.6807 8.69062 43.2722 8.36137 42.7514 7.96229L39.0912 13.6843C39.5549 14.0384 40.1661 14.5589 40.5563 14.9131L44.0022 13.1371L44.2233 12.9759L44.0608 13.1954L42.2742 16.6209Z" fill="#FEFCFA"/>
</g>
</g>
</g>
</g>
<defs>
<clipPath id="clip0_14050_1936">
<rect width="57.2983" height="57.2983" fill="white"/>
</clipPath>
<clipPath id="clip1_14050_1936">
<rect width="57.2983" height="57.2983" fill="white"/>
</clipPath>
<clipPath id="clip2_14050_1936">
<rect width="57.2983" height="57.2983" fill="white"/>
</clipPath>
</defs>
</svg>
