<svg width="94" height="12" viewBox="0 0 94 12" fill="none" xmlns="http://www.w3.org/2000/svg">
<g clip-path="url(#clip0_14050_1886)">
<g clip-path="url(#clip1_14050_1886)">
<g clip-path="url(#clip2_14050_1886)">
<mask id="mask0_14050_1886" style="mask-type:luminance" maskUnits="userSpaceOnUse" x="0" y="0" width="93" height="11">
<path d="M92.9947 0.462097H0.578064V10.6279H92.9947V0.462097Z" fill="white"/>
</mask>
<g mask="url(#mask0_14050_1886)">
<path d="M50.9451 0.832153C47.7106 0.832153 45.9546 2.86532 45.9546 5.5454C45.9546 8.22549 47.6181 10.2587 50.9451 10.2587C54.1797 10.2587 55.9356 8.22549 55.9356 5.5454C55.9356 2.86532 54.2721 0.832153 50.9451 0.832153ZM79.2246 0.832153C76.4521 0.832153 75.0659 1.94115 75.0659 3.8819C75.0659 5.82265 75.9901 6.19232 77.9308 6.37715L80.0564 6.56199C80.8882 6.56199 81.2578 6.93165 81.2578 7.39374C81.2578 7.85582 80.7033 8.22549 79.4095 8.22549C78.1156 8.22549 77.2839 7.85582 77.1915 7.11649H74.9735C75.0659 9.14965 76.4521 10.2587 79.3171 10.2587C82.182 10.2587 83.3834 9.14965 83.3834 7.39374C83.3834 5.63782 82.5516 4.9909 80.8881 4.80607L78.7626 4.52882C77.5611 4.4364 77.2839 4.06674 77.2839 3.69707C77.2839 3.3274 77.9308 2.86532 79.1322 2.86532C80.3336 2.86532 80.8881 3.3274 81.073 3.97432H83.291C83.1986 2.03357 81.6275 0.924569 79.3171 0.924569L79.2246 0.832153ZM28.1182 1.01699V6.83924C28.1182 9.42691 30.4286 10.2587 32.3694 10.2587C34.3101 10.2587 36.6206 9.42691 36.6206 6.83924V1.01699H34.3101V6.56199C34.3101 7.7634 33.5708 8.22549 32.3694 8.22549C31.168 8.22549 30.4286 7.7634 30.4286 6.56199V1.01699H28.1182ZM8.8956 1.1094L0.855347 6.0999V10.0738L8.8956 5.08332H13.0543C13.1467 5.08332 13.3316 5.17574 13.3316 5.36057C13.3316 5.5454 13.3316 5.5454 13.2391 5.5454L9.26523 7.94824C8.98802 8.13307 8.8956 8.41032 8.8956 8.59515V10.0738H13.8861V1.38665C13.8861 1.20182 13.7936 1.1094 13.6088 1.1094H8.80318H8.8956ZM21.3718 1.1094L17.9524 10.0738H20.3552L20.9097 8.41032H24.6988L25.2533 10.0738H27.6561L24.3291 1.1094H21.4642H21.3718ZM37.5447 1.1094V3.05015H40.4096V10.0738H42.7201V3.05015H45.585V1.1094H37.5447ZM57.1371 1.1094V10.0738H61.2958C64.5304 10.0738 65.3622 8.8724 65.3622 5.5454C65.3622 2.2184 64.5304 1.1094 61.2958 1.1094H57.1371ZM66.7484 1.1094V10.0738H73.9569V8.13307H69.0588V6.46957H73.0327V4.52882H69.0588V3.05015H73.9569V1.1094H66.7484ZM84.4924 1.1094V10.0738H86.8028V6.6544L89.8526 10.0738H92.7179L88.5587 5.63782L92.7179 1.1094H90.0374L86.8028 4.71365V1.1094H84.4924ZM50.9451 2.86532C52.6086 2.86532 53.5328 3.8819 53.5328 5.5454C53.5328 7.2089 52.6086 8.22549 50.9451 8.22549C49.2816 8.22549 48.3575 7.2089 48.3575 5.5454C48.3575 3.8819 49.2816 2.86532 50.9451 2.86532ZM22.8505 2.95774L24.0519 6.46957H21.5566L22.8505 2.95774ZM59.4475 3.05015H61.2958C62.6821 3.05015 63.1441 3.41982 63.1441 5.5454C63.1441 7.67099 62.6821 8.13307 61.2958 8.13307H59.4475V3.05015Z" fill="white"/>
</g>
</g>
</g>
</g>
<defs>
<clipPath id="clip0_14050_1886">
<rect width="93.3408" height="11.09" fill="white"/>
</clipPath>
<clipPath id="clip1_14050_1886">
<rect width="93.3408" height="11.09" fill="white"/>
</clipPath>
<clipPath id="clip2_14050_1886">
<rect width="93.3408" height="11.09" fill="white"/>
</clipPath>
</defs>
</svg>
