<svg width="67" height="13" viewBox="0 0 67 13" fill="none" xmlns="http://www.w3.org/2000/svg">
<g clip-path="url(#clip0_14050_1900)">
<g clip-path="url(#clip1_14050_1900)">
<g clip-path="url(#clip2_14050_1900)">
<mask id="mask0_14050_1900" style="mask-type:luminance" maskUnits="userSpaceOnUse" x="0" y="0" width="66" height="13">
<path d="M65.632 0.383301H0.478271V12.5549H65.632V0.383301Z" fill="white"/>
</mask>
<g mask="url(#mask0_14050_1900)">
<path d="M30.5123 4.541C30.5123 2.32002 29.0678 0.631958 26.0912 0.631958H20.1025V12.3057H22.9207V3.1549H26.1087C27.289 3.1549 27.7114 3.83033 27.7114 4.612C27.7114 5.41163 27.2711 6.0691 26.091 6.0691H23.3608L27.2359 12.3057H30.4417C30.4417 12.3057 27.7995 8.11232 27.8172 8.11232C29.4555 7.72157 30.5123 6.5666 30.5123 4.541Z" fill="#FEFCFA"/>
<path d="M18.1987 0.631958H15.3805V12.3059H18.1987V0.631958Z" fill="#FEFCFA"/>
<path d="M8.17546 7.8994H5.80379L7.55882 4.31028H7.59426L11.5397 12.3059H14.7806L8.87996 0.632202H6.37896L0.478271 12.3059H3.64866L4.60448 10.3515H9.35547L8.17546 7.8994Z" fill="#FEFCFA"/>
<path d="M40.7975 6.24685C41.6961 5.74917 42.1715 4.94971 42.1715 3.77695C42.1715 1.89351 40.78 0.631958 38.4374 0.631958H31.8494V12.3057H38.7017C41.097 12.3057 42.6648 11.0086 42.6648 9.03633C42.6646 7.66836 41.9073 6.63777 40.7975 6.24685ZM34.668 3.10169H38.4374C39.0012 3.10169 39.4415 3.54582 39.4415 4.13229C39.4415 4.71874 39.0012 5.16288 38.4196 5.16288H34.6679L34.668 3.10169ZM38.5077 9.85363H34.6679V7.47265H38.5077C39.1947 7.47265 39.7231 7.97032 39.7231 8.64542C39.7233 9.33831 39.1947 9.85363 38.5077 9.85363Z" fill="#FEFCFA"/>
<path d="M51.5605 7.15314C51.5605 8.92505 50.7502 9.90725 49.1475 9.90725C47.5623 9.90725 46.752 8.92505 46.752 7.15314V0.632202H43.8635V6.93997C43.8635 10.547 45.7482 12.5549 49.1475 12.5549C52.5469 12.5549 54.4492 10.547 54.4492 6.93997V0.632202H51.5605V7.15314Z" fill="#FEFCFA"/>
<path d="M61.9712 5.26973C59.2959 4.61259 58.7129 4.54982 58.7129 3.77704C58.7129 3.17921 59.3821 2.88861 60.5094 2.88861C62.0065 2.88861 63.6009 3.26751 64.5077 3.83042L65.4061 1.44947C64.2437 0.827593 62.535 0.383301 60.5446 0.383301C57.5678 0.383301 55.8944 1.87598 55.8944 3.88362C55.8944 6.04398 57.1443 6.9217 60.0161 7.54392C62.2516 8.04109 62.7283 8.35129 62.7283 8.98306C62.7283 9.66933 62.1121 9.97819 60.8967 9.97819C59.1353 9.97819 57.5412 9.5466 56.2642 8.84105L55.4012 11.3286C56.7928 12.0748 58.8711 12.5547 60.9671 12.5547C63.8911 12.5547 65.6346 11.1864 65.6346 8.89426C65.635 7.0553 64.4556 5.87397 61.9712 5.26973Z" fill="#FEFCFA"/>
</g>
</g>
</g>
</g>
<defs>
<clipPath id="clip0_14050_1900">
<rect width="66.54" height="12.9383" fill="white"/>
</clipPath>
<clipPath id="clip1_14050_1900">
<rect width="66.54" height="12.9383" fill="white"/>
</clipPath>
<clipPath id="clip2_14050_1900">
<rect width="66.54" height="12.9383" fill="white"/>
</clipPath>
</defs>
</svg>
