<svg width="84" height="26" viewBox="0 0 84 26" fill="none" xmlns="http://www.w3.org/2000/svg">
<path d="M24.4538 6.21398L16.0815 7.27713C15.484 7.353 15.0361 7.86134 15.0361 8.46364V17.0433C15.0361 17.6421 15.4789 18.1486 16.0723 18.2286L24.4446 19.3582C25.1622 19.455 25.8005 18.897 25.8005 18.1729V7.4005C25.8005 6.68014 25.1684 6.12323 24.4538 6.21398Z" fill="#161616"/>
<path d="M19.1924 0.300102L0.995449 3.39585C0.420557 3.49365 0 3.9918 0 4.57495V21.5088C0 22.0974 0.428303 22.5986 1.00976 22.6902L19.2067 25.5595C19.9326 25.6739 20.589 25.1129 20.589 24.378V20.6942C20.589 20.523 20.4624 20.3782 20.2927 20.3555L14.6207 19.5946C14.0269 19.5149 13.5836 19.0083 13.5836 18.4092V12.92V7.39359C13.5836 6.8107 14.0038 6.3127 14.5784 6.21461L20.3048 5.23692C20.469 5.2089 20.589 5.06661 20.589 4.90007V1.4792C20.589 0.738493 19.9226 0.175874 19.1924 0.300102Z" fill="#1252D3"/>
<path d="M21.4546 14.8262H20.6444L20.4158 14.0905H19.0936L18.85 14.8262H18.0647L19.3421 11.2474H20.1871L21.4546 14.8262ZM19.7597 12.0675L19.2974 13.4742H20.207L19.7597 12.0675ZM21.8457 11.2474H22.5913V14.8262H21.8457V11.2474Z" fill="white"/>
<path d="M9.7897 13.8085C9.34984 14.1768 8.71564 14.3507 7.90753 14.3507H6.34247V17H4.81833V9.63501H8.02005C8.75655 9.63501 9.34984 9.82937 9.7897 10.2078C10.2296 10.5863 10.4444 11.1796 10.4444 11.9673C10.4444 12.8367 10.2296 13.4505 9.7897 13.8085ZM8.62357 11.1592C8.41899 10.9955 8.1428 10.9137 7.77456 10.9137H6.34247V13.0822H7.77456C8.1428 13.0822 8.41899 12.9902 8.62357 12.8163C8.82816 12.6424 8.92022 12.3662 8.92022 11.9775C8.92022 11.599 8.82816 11.3228 8.62357 11.1592Z" fill="white"/>
<path d="M45.8251 13.4816C44.9267 14.2337 43.6314 14.5889 41.9809 14.5889H38.7844V20H35.6714V4.95746H42.2107C43.715 4.95746 44.9267 5.35441 45.8251 6.12743C46.7235 6.90045 47.1622 8.11221 47.1622 9.72093C47.1622 11.4968 46.7235 12.7503 45.8251 13.4816ZM43.4434 8.07043C43.0255 7.73615 42.4614 7.56901 41.7093 7.56901H38.7844V11.9982H41.7093C42.4614 11.9982 43.0255 11.8102 43.4434 11.455C43.8612 11.0998 44.0493 10.5357 44.0493 9.74182C44.0493 8.9688 43.8612 8.40471 43.4434 8.07043ZM55.4772 8.61363C55.4981 8.63452 55.5817 8.63452 55.728 8.63452V11.6221C55.5399 11.6012 55.3728 11.5804 55.2265 11.5804C55.0803 11.5595 54.9758 11.5595 54.8923 11.5595C53.7014 11.5595 52.9284 11.9355 52.5314 12.7085C52.3016 13.1264 52.1971 13.795 52.1971 14.6933V20H49.2513V8.88523H52.03V10.8282C52.4896 10.0761 52.8657 9.57468 53.2 9.30308C53.7432 8.84345 54.4535 8.61363 55.331 8.61363H55.4772ZM64.3079 9.11505C65.0391 9.44933 65.645 9.99253 66.1255 10.7447C66.5643 11.4132 66.8568 12.1653 66.9821 13.0428C67.0448 13.5442 67.0866 14.2964 67.0657 15.2365H59.4608C59.5026 16.3647 59.8578 17.1377 60.5055 17.5974C60.9024 17.869 61.4038 18.0152 61.9679 18.0152C62.5738 18.0152 63.0334 17.8272 63.4304 17.4929C63.6184 17.3258 63.8065 17.0542 63.9527 16.7408H66.9403C66.8568 17.3884 66.5016 18.057 65.8957 18.7465C64.9556 19.8329 63.6184 20.3761 61.9053 20.3761C60.4846 20.3761 59.231 19.9164 58.1655 18.9972C57.0791 18.0988 56.5359 16.5945 56.5359 14.5471C56.5359 12.625 57.0164 11.1625 57.9984 10.1179C58.9803 9.09416 60.2339 8.59274 61.8008 8.59274C62.7201 8.59274 63.5558 8.75988 64.3079 9.11505ZM60.2339 11.6221C59.8578 12.04 59.628 12.6041 59.5444 13.3353H64.0572C63.9945 12.5623 63.7856 11.9773 63.3677 11.5804C62.9499 11.1834 62.4276 10.9745 61.8008 10.9745C61.1322 10.9745 60.6099 11.2043 60.2339 11.6221ZM77.4004 8.88523V11.2879L71.7595 17.6183H77.6093V20H67.9988V17.7436L73.7025 11.2461H68.3958V8.88523H77.4004ZM79.5105 4.87389H82.4564V7.54812H79.5105V4.87389ZM82.4564 20H79.5105V8.88523H82.4564V20Z" fill="black"/>
</svg>
