<svg width="77" height="17" viewBox="0 0 77 17" fill="none" xmlns="http://www.w3.org/2000/svg">
<g clip-path="url(#clip0_14050_1961)">
<g clip-path="url(#clip1_14050_1961)">
<g clip-path="url(#clip2_14050_1961)">
<mask id="mask0_14050_1961" style="mask-type:luminance" maskUnits="userSpaceOnUse" x="0" y="0" width="77" height="17">
<path d="M76.7059 0.213867H0.666016V16.4209H76.7059V0.213867Z" fill="white"/>
</mask>
<g mask="url(#mask0_14050_1961)">
<path d="M7.03052 2.07075V0.213867H10.8855C14.0291 0.213867 16.8579 1.92958 16.8579 5.76822C16.8524 9.44394 13.3613 11.0728 11.385 11.0728H7.8015C8.52673 10.6887 9.10076 10.0707 9.43037 9.31909H11.4067C11.8692 9.32223 12.3275 9.23219 12.7544 9.05449C13.1814 8.87678 13.5682 8.61499 13.892 8.28469C14.2157 7.95441 14.4696 7.56237 14.6387 7.13191C14.8077 6.70146 14.8885 6.24139 14.8761 5.77908C14.8761 3.44984 13.421 1.97845 11.4067 1.97845H8.97971V3.60729C8.49406 2.92571 7.81504 2.40558 7.03052 2.11419" fill="#FEFCFA"/>
<path d="M19.8439 11.062H17.9219V2.91235H19.8439V11.062Z" fill="#FEFCFA"/>
<path d="M27.3989 3.73754L26.6604 5.03518C25.8678 4.36736 23.2453 3.73754 23.2453 5.1112C23.2453 6.63145 27.5889 5.77359 27.5889 8.78152C27.5889 11.4366 23.7882 12.0392 21.0735 10.0303L21.9314 8.78152C22.7078 9.55792 25.8678 10.5678 25.8678 8.89555C25.8678 7.22327 21.4753 8.18428 21.4753 5.22522C21.4753 2.67879 24.9719 2.05983 27.3989 3.73211" fill="#FEFCFA"/>
<path d="M34.7741 5.42618C33.4874 3.7539 30.3274 4.05252 30.3274 7.05502C30.3274 10.0575 33.7534 10.2475 34.8393 8.62957L35.9578 9.76437C33.4168 12.7832 28.4271 11.062 28.4271 7.04959C28.4271 2.89061 33.4168 1.41379 35.9089 4.14482L34.7741 5.42618Z" fill="#FEFCFA"/>
<path d="M40.8465 9.63951C40.5052 9.64607 40.1663 9.58203 39.851 9.45163C39.5356 9.32123 39.2506 9.12709 39.0136 8.88146C38.7766 8.63585 38.5928 8.34399 38.4738 8.02413C38.3548 7.70428 38.303 7.36331 38.3218 7.02253C38.3013 6.68137 38.352 6.33969 38.4705 6.01911C38.5889 5.69851 38.7726 5.406 39.0099 5.16003C39.2471 4.91406 39.5329 4.72 39.849 4.59013C40.1652 4.46027 40.5048 4.39741 40.8465 4.40552C41.5167 4.43647 42.1486 4.72682 42.6086 5.21519C43.0686 5.70357 43.3206 6.35169 43.3114 7.02253C43.3291 7.35807 43.2785 7.69369 43.1628 8.00914C43.0471 8.32459 42.8687 8.61332 42.6384 8.85791C42.408 9.10249 42.1304 9.29785 41.8224 9.43222C41.5145 9.5665 41.1824 9.63711 40.8465 9.63951ZM40.8031 2.77668C39.6634 2.76797 38.5667 3.2109 37.7528 4.00858C36.9387 4.80627 36.4738 5.89381 36.4595 7.03339C36.4595 8.19186 36.9196 9.30284 37.7388 10.122C38.558 10.9412 39.669 11.4014 40.8275 11.4014C41.9859 11.4014 43.0969 10.9412 43.9161 10.122C44.7353 9.30284 45.1955 8.19186 45.1955 7.03339C45.1812 5.89381 44.7162 4.80627 43.9023 4.00858C43.0882 3.2109 41.9915 2.76797 40.8519 2.77668" fill="#FEFCFA"/>
<path d="M45.2354 2.91235H47.2605L49.4486 8.92822L51.6584 2.91235H53.6293L50.301 11.176H48.6016L45.2354 2.91235Z" fill="#FEFCFA"/>
<path d="M55.6606 6.26757C56.1059 3.64514 59.5536 3.63428 59.8576 6.26757H55.6606ZM53.7983 7.02227C53.7983 11.4201 59.331 12.5658 61.3507 9.76418L60.2648 8.78685C59.4124 10.0302 56.2198 10.546 55.6878 7.70095H61.7199C62.1869 1.09871 53.8255 1.51678 53.8255 7.04399L53.7983 7.02227Z" fill="#FEFCFA"/>
<path d="M63.105 2.92859H65.0107V4.29682C65.6499 3.56859 66.5395 3.10732 67.5028 3.0046L68.1326 4.55743C67.3128 4.55743 65.0053 5.42072 65.0053 7.73367V11.0728H63.105V2.92859Z" fill="#FEFCFA"/>
<path d="M68.7493 2.92859H70.7419L72.6857 8.90102L74.7815 2.92859H76.7144C76.7144 2.92859 73.3589 11.5126 72.7236 13.1034C72.2241 14.3304 71.5183 14.8734 69.9167 14.8734H68.7439V13.3206H70.1664C71.0188 13.3206 71.7572 11.0674 71.7572 11.0674L68.7493 2.92859Z" fill="#FEFCFA"/>
<path d="M35.8183 14.0266L35.4491 14.3849C35.345 14.2612 35.2154 14.1613 35.0693 14.0919C34.9232 14.0226 34.7639 13.9856 34.6021 13.9832C34.4777 13.9807 34.3542 14.0041 34.2392 14.0516C34.1243 14.0993 34.0205 14.1703 33.9343 14.26C33.8458 14.3491 33.776 14.4551 33.7294 14.5717C33.6828 14.6883 33.6601 14.8132 33.6628 14.9388C33.6648 15.1058 33.7076 15.2699 33.7878 15.4165C33.8671 15.5606 33.9857 15.6792 34.1298 15.7586C34.2789 15.8425 34.4474 15.8856 34.6184 15.8834C34.7625 15.8851 34.9051 15.8555 35.0365 15.7966C35.1932 15.7168 35.3347 15.6103 35.4546 15.4817L35.8129 15.8617C35.647 16.0375 35.4501 16.1811 35.232 16.2853C35.036 16.3671 34.8253 16.4077 34.613 16.4047C34.4181 16.4112 34.224 16.3775 34.0427 16.3055C33.8615 16.2336 33.697 16.125 33.5597 15.9866C33.42 15.8437 33.3113 15.6735 33.2403 15.4866C33.1693 15.2998 33.1375 15.1004 33.147 14.9007C33.1413 14.639 33.2051 14.3806 33.3317 14.1515C33.4585 13.9235 33.6465 13.7354 33.8746 13.6085C34.1022 13.4764 34.3607 13.4071 34.6239 13.4076C34.8509 13.4077 35.0752 13.4577 35.2808 13.5542C35.4903 13.6521 35.6756 13.7949 35.8238 13.9723" fill="#FEFCFA"/>
<path d="M38.4955 13.478H39.0656V14.6562H40.4012V13.478H40.9387V16.4154H40.4012V15.1937H39.0656V16.4154H38.4955V13.478Z" fill="#FEFCFA"/>
<path d="M45.124 14.1567L44.6462 15.1992H45.5801L45.1294 14.1622L45.124 14.1567ZM44.8796 13.4672H45.3792L46.6605 16.41H46.0632L45.7646 15.6878H44.4561L44.1467 16.4154H43.5603L44.8579 13.4726L44.8796 13.4672Z" fill="#FEFCFA"/>
<path d="M49.2786 13.4726H49.8595L51.3418 15.4218V13.4726H51.8684V16.4154H51.3418L49.8432 14.3576L49.8486 16.4154H49.2786V13.4726Z" fill="#FEFCFA"/>
<path d="M54.7441 13.4726H55.3252L56.8073 15.4218L56.8128 13.4726H57.334V16.4154H56.8128L55.3143 14.3576L55.3197 16.4154H54.7441V13.4726Z" fill="#FEFCFA"/>
<path d="M60.2097 13.4672H62.4195V13.945H60.7852V14.6563H62.2349V15.1938H60.7852V15.8779H62.4195V16.41H60.2097V13.4672Z" fill="#FEFCFA"/>
<path d="M65.1771 13.4728H65.7526V15.8781H67.2458V16.4101H65.1771V13.4728Z" fill="#FEFCFA"/>
<path d="M73.4142 14.8409V14.0537H73.1047V13.9451H73.8486V14.0537H73.5391V14.8409H73.4142Z" fill="#FEFCFA"/>
<path d="M73.9279 14.8409V13.9451H74.1125L74.3297 14.5803L74.3731 14.7106L74.422 14.564L74.6445 13.9396H74.8075V14.8355H74.688V14.0917L74.422 14.8463H74.3134L74.0473 14.0808V14.8463L73.9279 14.8409Z" fill="#FEFCFA"/>
<path d="M9.1975 6.7835C9.1975 7.62778 8.94707 8.45308 8.4779 9.155C8.00873 9.85694 7.34191 10.4039 6.5618 10.7268C5.78168 11.0496 4.92334 11.1338 4.09537 10.9687C3.26739 10.8036 2.50699 10.3966 1.91038 9.79918C1.31376 9.20183 0.907746 8.44091 0.743695 7.61273C0.579643 6.78455 0.66493 5.92631 0.988763 5.1466C1.3126 4.3669 1.86043 3.70078 2.56294 3.2325C3.26546 2.76423 4.09108 2.51485 4.93535 2.51593C6.0653 2.51737 7.14856 2.96687 7.94755 3.76587C8.74655 4.56487 9.19606 5.64812 9.1975 6.77807" fill="#FEFCFA"/>
</g>
</g>
</g>
</g>
<defs>
<clipPath id="clip0_14050_1961">
<rect width="76.7058" height="16.635" fill="white"/>
</clipPath>
<clipPath id="clip1_14050_1961">
<rect width="76.7058" height="16.635" fill="white"/>
</clipPath>
<clipPath id="clip2_14050_1961">
<rect width="76.7058" height="16.635" fill="white"/>
</clipPath>
</defs>
</svg>
