<svg width="61" height="43" viewBox="0 0 61 43" fill="none" xmlns="http://www.w3.org/2000/svg">
<g clip-path="url(#clip0_14050_1894)">
<g clip-path="url(#clip1_14050_1894)">
<g clip-path="url(#clip2_14050_1894)">
<path fill-rule="evenodd" clip-rule="evenodd" d="M25.2542 5.15164C27.1706 3.1743 29.8393 1.94809 32.7915 1.94809C36.7149 1.94809 40.1381 4.1134 41.9609 7.32934C43.5922 6.60831 45.3579 6.23672 47.1432 6.23877C54.2204 6.23877 59.9584 11.9691 59.9584 19.0378C59.9584 26.1066 54.2204 31.8369 47.144 31.8369C46.2799 31.8369 45.4362 31.7508 44.6193 31.5876C43.804 33.0297 42.6169 34.23 41.1801 35.0649C39.7432 35.8999 38.1085 36.3394 36.444 36.3382C34.9739 36.3382 33.5848 36.0023 32.3453 35.404C31.522 37.3185 30.1508 38.9504 28.4019 40.0969C26.6531 41.2434 24.6037 41.8538 22.5086 41.8523C20.325 41.8539 18.1932 41.1909 16.4001 39.9525C14.6069 38.7141 13.2384 36.9598 12.4786 34.9254C11.8083 35.0652 11.1252 35.1355 10.4403 35.1354C4.96082 35.1361 0.519836 30.6926 0.519836 25.2109C0.519836 21.5364 2.51447 18.3293 5.48044 16.613C4.85221 15.1809 4.52882 13.6352 4.53058 12.0731C4.53058 5.76991 9.69903 0.659241 16.0744 0.659241C19.8176 0.659241 23.1446 2.42108 25.2542 5.15164Z" fill="#FEFCFA"/>
<path fill-rule="evenodd" clip-rule="evenodd" d="M9.12874 22.0206C9.09133 22.1178 9.14261 22.1377 9.15438 22.1543C9.26595 22.2348 9.37889 22.292 9.49385 22.3573C10.0994 22.6754 10.6724 22.7684 11.2709 22.7684C12.4903 22.7684 13.2475 22.1267 13.2475 21.0926V21.0726C13.2475 20.117 12.3926 19.7693 11.5917 19.5187L11.4871 19.4857C10.8823 19.2915 10.3606 19.1235 10.3606 18.7283V18.7091C10.3606 18.3717 10.6654 18.1238 11.1379 18.1238C11.6631 18.1238 12.2859 18.296 12.687 18.5163C12.687 18.5163 12.8055 18.592 12.8485 18.4784L13.0965 17.8174C13.1194 17.7541 13.0793 17.7066 13.0377 17.6811C12.579 17.4057 11.9458 17.2171 11.2903 17.2171L11.1691 17.2177C10.0522 17.2177 9.27289 17.8856 9.27289 18.8426V18.8619C9.27289 19.8698 10.1326 20.1975 10.9384 20.4248L11.0672 20.4647C11.6547 20.643 12.1605 20.7972 12.1605 21.2055V21.2261C12.1605 21.5993 11.8308 21.8781 11.3014 21.8781C10.7455 21.8825 10.2 21.727 9.73081 21.4307C9.6456 21.3811 9.59644 21.3453 9.5299 21.3053C9.49524 21.284 9.408 21.2468 9.36918 21.3604L9.12874 22.0206ZM26.9786 22.0206C26.9405 22.1178 26.9911 22.1377 27.0036 22.1543C27.1158 22.2348 27.228 22.292 27.343 22.3573C27.9485 22.6754 28.5215 22.7684 29.1201 22.7684C30.3395 22.7684 31.0967 22.1267 31.0967 21.0926V21.0726C31.0967 20.117 30.2418 19.7693 29.4409 19.5187L29.3363 19.4857C28.7314 19.2915 28.2097 19.1235 28.2097 18.7283V18.7091C28.2097 18.3717 28.5146 18.1238 28.9871 18.1238C29.5122 18.1238 30.1351 18.296 30.5362 18.5163C30.5362 18.5163 30.6554 18.592 30.6977 18.4784L30.9464 17.8174C30.9685 17.7541 30.9283 17.7066 30.8868 17.6811C30.4282 17.4057 29.7956 17.2171 29.1395 17.2171L29.0183 17.2177C27.9014 17.2177 27.1227 17.8856 27.1227 18.8426V18.8619C27.1227 19.8698 27.9825 20.1975 28.7876 20.4248L28.9164 20.4647C29.5039 20.643 30.0111 20.7972 30.0111 21.2055V21.2261C30.0111 21.5993 29.6813 21.8781 29.1506 21.8781C28.5946 21.8824 28.0493 21.7269 27.58 21.4307C27.4948 21.3811 27.4441 21.3474 27.3791 21.3053C27.3575 21.2916 27.2543 21.2523 27.2197 21.3604L26.9786 22.0206ZM40.181 18.9129C40.0889 18.5926 39.9314 18.2948 39.7182 18.0378C39.5049 17.7865 39.238 17.5856 38.9367 17.4498C38.6249 17.3059 38.2584 17.2323 37.8462 17.2323C37.4333 17.2323 37.0653 17.3059 36.7543 17.4498C36.4529 17.5858 36.1859 17.7869 35.9728 18.0385C35.765 18.2842 35.6098 18.5796 35.51 18.9129C35.4077 19.2648 35.357 19.6295 35.3596 19.9958C35.3596 20.3814 35.4109 20.7463 35.51 21.0788C35.6098 21.4127 35.7656 21.7074 35.9728 21.9546C36.1806 22.2004 36.4439 22.398 36.755 22.5377C37.0661 22.6782 37.4333 22.7491 37.8462 22.7491C38.2584 22.7491 38.6242 22.6782 38.9367 22.5377C39.247 22.398 39.5103 22.2004 39.7182 21.9546C39.9254 21.7088 40.0812 21.4135 40.181 21.0788C40.2834 20.7269 40.334 20.3621 40.3314 19.9958C40.3314 19.6103 40.2808 19.2461 40.181 18.9129ZM39.1632 19.9958C39.1632 20.5797 39.053 21.0409 38.8369 21.366C38.6221 21.6875 38.2979 21.8451 37.8462 21.8451C37.3938 21.8451 37.0709 21.6875 36.8596 21.366C36.6455 21.0409 36.5375 20.5797 36.5375 19.9958C36.5375 19.4126 36.6455 18.9528 36.8589 18.6313C37.0709 18.3132 37.3938 18.1575 37.8462 18.1575C38.2979 18.1575 38.6221 18.3132 38.8369 18.6313C39.053 18.9528 39.1632 19.4126 39.1632 19.9958ZM48.5385 21.6889C48.5052 21.5911 48.4082 21.6282 48.4082 21.6282C48.2607 21.6841 48.1034 21.7356 47.935 21.7611C47.7508 21.789 47.5644 21.8023 47.378 21.8011C46.8861 21.8011 46.494 21.6558 46.2134 21.3694C45.9328 21.0822 45.7748 20.619 45.7769 19.9917C45.7783 19.4216 45.9168 18.9927 46.167 18.665C46.415 18.3393 46.7933 18.1727 47.2962 18.1727C47.7161 18.1727 48.0362 18.2209 48.3723 18.3249C48.3723 18.3249 48.4526 18.3593 48.49 18.2561C48.5801 18.0102 48.6452 17.836 48.7408 17.5675C48.7678 17.4897 48.7013 17.458 48.677 17.4484C48.4562 17.3721 48.229 17.3152 47.9981 17.2784C47.7452 17.2431 47.49 17.2263 47.2346 17.2281C46.8071 17.2281 46.4268 17.3004 46.1005 17.4443C45.7748 17.5868 45.4998 17.7851 45.2802 18.0316C45.0573 18.2868 44.8893 18.5846 44.7862 18.9067C44.6727 19.2574 44.6166 19.624 44.6199 19.9924C44.6199 20.8282 44.8471 21.5037 45.2968 21.9973C45.7472 22.495 46.424 22.7464 47.306 22.7464C47.8276 22.7464 48.3626 22.6417 48.747 22.4916C48.747 22.4916 48.8211 22.4572 48.7886 22.3718L48.5385 21.6889ZM53.7457 18.7235C53.6588 18.4287 53.5085 18.1562 53.3051 17.9248C53.0834 17.6881 52.8658 17.5228 52.6511 17.4312C52.3388 17.2997 52.0029 17.2323 51.6638 17.2329C51.2343 17.2329 50.8435 17.3052 50.5262 17.4518C50.2204 17.5906 49.9496 17.7955 49.7336 18.0515C49.5188 18.312 49.3599 18.6132 49.2667 18.937C49.1638 19.2904 49.1129 19.6568 49.1157 20.0247C49.1157 20.4186 49.1682 20.7855 49.2722 21.1139C49.3768 21.4472 49.5445 21.7384 49.771 21.9815C50.012 22.2345 50.3083 22.429 50.637 22.5501C50.9841 22.6823 51.4054 22.7518 51.8882 22.7498C52.8832 22.747 53.4077 22.5275 53.6231 22.409C53.6619 22.3876 53.6972 22.3511 53.6529 22.2459L53.4263 21.6207C53.3924 21.5284 53.2975 21.5622 53.2975 21.5622C53.0501 21.653 52.701 21.8155 51.8834 21.8142C51.3485 21.8134 50.953 21.6572 50.7049 21.4127C50.4507 21.1635 50.3246 20.7966 50.3031 20.2788L53.7485 20.2815C53.7485 20.2815 53.8386 20.2802 53.849 20.1921C53.8525 20.1562 53.9674 19.4918 53.7457 18.7235ZM50.3197 19.4361C50.3683 19.1118 50.4583 18.8419 50.5983 18.6319C50.8089 18.3125 51.1303 18.1362 51.5821 18.1362C52.0352 18.1362 52.333 18.3125 52.5478 18.6319C52.6906 18.8426 52.7523 19.1228 52.7765 19.4375L50.3197 19.4361ZM26.1542 18.7235C26.0675 18.4288 25.9173 18.1562 25.7142 17.9248C25.4925 17.6881 25.2757 17.5228 25.0595 17.4312C24.7476 17.3 24.4123 17.2325 24.0736 17.2329C23.6427 17.2329 23.2526 17.3052 22.9353 17.4518C22.6292 17.5906 22.3582 17.7954 22.142 18.0515C21.9274 18.312 21.7687 18.6133 21.6758 18.937C21.5728 19.2904 21.522 19.6568 21.5247 20.0247C21.5247 20.4186 21.5767 20.7855 21.6806 21.1139C21.7859 21.4472 21.9536 21.7384 22.1794 21.9815C22.4206 22.2346 22.7172 22.4291 23.0461 22.5501C23.3926 22.6823 23.8138 22.7518 24.2973 22.7498C25.2923 22.747 25.816 22.5275 26.0322 22.409C26.0703 22.3876 26.1063 22.3511 26.0619 22.2459L25.8354 21.6207C25.8008 21.5284 25.7059 21.5622 25.7059 21.5622C25.4592 21.653 25.1101 21.8155 24.2918 21.8142C23.7584 21.8134 23.3613 21.6572 23.114 21.4127C22.8591 21.1635 22.733 20.7966 22.7122 20.2788L26.1569 20.2815C26.1569 20.2815 26.2477 20.2802 26.2574 20.1921C26.2608 20.1562 26.3751 19.4918 26.1542 18.7235ZM22.7281 19.4361C22.7766 19.1118 22.8667 18.8419 23.0059 18.6319C23.2179 18.3125 23.5394 18.1362 23.9912 18.1362C24.4435 18.1362 24.7429 18.3125 24.9577 18.6319C25.099 18.8426 25.1613 19.1228 25.1856 19.4375L22.7281 19.4361ZM16.6521 19.2729C16.4733 19.2615 16.2942 19.2566 16.1151 19.2578C15.8193 19.2578 15.5338 19.2943 15.2657 19.3659C15.0084 19.4321 14.7651 19.5435 14.5473 19.695C14.3392 19.8419 14.1679 20.0346 14.0471 20.2582C13.9207 20.5004 13.8573 20.7702 13.8628 21.0431C13.8628 21.346 13.9154 21.6083 14.0208 21.8231C14.1261 22.0386 14.2771 22.2183 14.4698 22.3567C14.6806 22.5033 14.9195 22.6057 15.1716 22.6576C15.4417 22.7195 15.7486 22.7505 16.0846 22.7505C16.438 22.7505 16.7892 22.7209 17.1308 22.6638C17.4212 22.6144 17.7103 22.5589 17.9982 22.4971C18.079 22.4784 18.1594 22.4582 18.2393 22.4365C18.3253 22.4145 18.3184 22.325 18.3184 22.325L18.3162 19.2061C18.3162 18.5204 18.1319 18.0136 17.7689 17.6983C17.408 17.3858 16.8752 17.2275 16.1865 17.2275C15.9281 17.2275 15.5131 17.2618 15.263 17.3114C15.263 17.3114 14.5112 17.456 14.2016 17.6969C14.2016 17.6969 14.1337 17.7382 14.1704 17.832L14.4143 18.4812C14.4448 18.5644 14.5279 18.5363 14.5279 18.5363C14.5279 18.5363 14.5542 18.5259 14.5847 18.508C15.2463 18.1513 16.0854 18.1617 16.0854 18.1617C16.4575 18.1617 16.7436 18.2375 16.9376 18.382C17.1246 18.5259 17.2202 18.74 17.2202 19.1951V19.3397C16.9243 19.2977 16.6521 19.2729 16.6521 19.2729ZM15.2817 21.6696C15.1459 21.5636 15.1279 21.5367 15.0836 21.4678C15.0143 21.3632 14.9796 21.2145 14.9796 21.0237C14.9796 20.7242 15.0801 20.5081 15.2865 20.3642C15.2851 20.3642 15.5845 20.1081 16.2863 20.1177C16.7796 20.1232 17.2216 20.1962 17.2216 20.1962V21.7466C17.2216 21.7466 16.7838 21.8396 16.2911 21.8685C15.5914 21.9112 15.279 21.6689 15.2817 21.6696ZM44.4391 17.5152C44.444 17.5039 44.4467 17.4916 44.4467 17.4792C44.4469 17.4668 44.4444 17.4545 44.4396 17.4432C44.4348 17.4317 44.4277 17.4213 44.4189 17.4127C44.41 17.404 44.3994 17.3972 44.3878 17.3927C44.1989 17.3422 44.0057 17.3095 43.8107 17.2949C43.3769 17.2688 43.1366 17.3403 42.9218 17.4367C42.7077 17.5317 42.4714 17.6867 42.3398 17.8622V17.4464C42.3398 17.3892 42.2983 17.3431 42.2408 17.3431H41.3574C41.2999 17.3431 41.2583 17.3892 41.2583 17.4464V22.5343C41.2583 22.5921 41.3048 22.6376 41.3637 22.6376H42.2685C42.296 22.6376 42.3225 22.6267 42.342 22.6073C42.3615 22.588 42.3724 22.5616 42.3724 22.5343V19.9924C42.3724 19.6509 42.4112 19.3108 42.4867 19.0973C42.5616 18.8853 42.6627 18.7167 42.7881 18.5961C42.9077 18.4786 43.0541 18.3914 43.2148 18.3421C43.3742 18.2938 43.5515 18.2774 43.6755 18.2774C43.8564 18.2774 44.0539 18.3242 44.0539 18.3242C44.1211 18.3311 44.1578 18.2904 44.1807 18.2319C44.2396 18.0757 44.4079 17.6075 44.4391 17.5152Z" fill="#1252D3"/>
<path fill-rule="evenodd" clip-rule="evenodd" d="M35.9441 15.1573C35.6817 15.0789 35.4089 15.0399 35.1349 15.0416C34.5121 15.0416 34.0208 15.2166 33.6758 15.5608C33.3336 15.9023 33.1008 16.4228 32.9829 17.1071L32.9414 17.3378H32.1592C32.1592 17.3378 32.0636 17.3343 32.0442 17.4376L31.916 18.1467C31.9063 18.2142 31.9361 18.2569 32.0275 18.2569H32.7897L32.0164 22.5255C31.9562 22.8698 31.887 23.1521 31.81 23.3669C31.7352 23.5782 31.6611 23.7366 31.5704 23.8516C31.4816 23.9624 31.3985 24.0458 31.2544 24.0933C31.1231 24.1334 30.9864 24.1527 30.849 24.1504C30.766 24.1504 30.6551 24.1366 30.5734 24.1201C30.4909 24.1043 30.4486 24.0857 30.387 24.0616C30.387 24.0616 30.2983 24.0272 30.2623 24.116C30.2346 24.1883 30.0315 24.7411 30.0073 24.8093C29.9831 24.8768 30.017 24.9297 30.0606 24.9449C30.1618 24.9808 30.2366 25.0041 30.3752 25.0358C30.5671 25.0812 30.7285 25.084 30.8795 25.084C31.1969 25.084 31.4858 25.0399 31.7248 24.9539C31.9666 24.8671 32.1765 24.717 32.3622 24.5146C32.5624 24.2943 32.6892 24.065 32.8098 23.7504C32.9455 23.3784 33.0468 22.995 33.1125 22.6047L33.8885 18.2569H35.0233C35.0233 18.2569 35.119 18.2604 35.1384 18.1571L35.2672 17.448C35.2755 17.3805 35.2464 17.3378 35.155 17.3378H34.0534C34.0589 17.3137 34.1089 16.9295 34.2349 16.5687C34.2876 16.4312 34.3704 16.307 34.4774 16.2052C34.5577 16.1235 34.6565 16.0622 34.7656 16.0262C34.8853 15.9903 35.0098 15.9729 35.1349 15.9746C35.2388 15.9746 35.3399 15.987 35.4182 16.0021C35.5242 16.0248 35.5665 16.0372 35.5942 16.0448C35.7065 16.0792 35.721 16.0468 35.7439 15.9931L36.0072 15.2771C36.0342 15.2 35.9684 15.1669 35.9441 15.1573ZM20.5531 22.5352C20.5531 22.5923 20.5115 22.6385 20.454 22.6385H19.5402C19.4826 22.6385 19.4418 22.5923 19.4418 22.5352V15.2544C19.4418 15.1973 19.4834 15.1511 19.5402 15.1511H20.454C20.5115 15.1511 20.5531 15.1973 20.5531 15.2544V22.5352Z" fill="#1252D3"/>
</g>
</g>
</g>
<defs>
<clipPath id="clip0_14050_1894">
<rect width="60.0708" height="42.5117" fill="white"/>
</clipPath>
<clipPath id="clip1_14050_1894">
<rect width="60.0708" height="42.5117" fill="white"/>
</clipPath>
<clipPath id="clip2_14050_1894">
<rect width="60.0708" height="42.5117" fill="white"/>
</clipPath>
</defs>
</svg>
