<svg width="48" height="48" viewBox="0 0 48 48" fill="none" xmlns="http://www.w3.org/2000/svg">
<g clip-path="url(#clip0_14050_3450)">
<path d="M11.3381 26.3497C11.3381 20.6419 11.3381 17.788 13.5264 16.0148C15.7146 14.2417 19.2363 14.2417 26.2801 14.2417C33.3237 14.2417 36.8455 14.2417 39.0337 16.0148C41.2219 17.788 41.2219 20.6419 41.2219 26.3497C41.2219 32.0575 41.2219 34.9114 39.0337 36.6846C36.8455 38.4578 33.3237 38.4578 26.2801 38.4578C19.2363 38.4578 15.7146 38.4578 13.5264 36.6846C11.3381 34.9114 11.3381 32.0575 11.3381 26.3497Z" fill="#CBDBFC"/>
<path d="M4.63965 19.6517C4.63965 14.1868 4.63965 11.4543 6.75238 9.75657C8.86511 8.05884 12.2655 8.05884 19.0662 8.05884C25.8671 8.05884 29.2674 8.05884 31.3802 9.75657C33.4929 11.4543 33.4928 14.1868 33.4928 19.6517C33.4928 25.1166 33.4929 27.849 31.3802 29.5468C29.2674 31.2444 25.8671 31.2444 19.0662 31.2444C12.2655 31.2444 8.86511 31.2444 6.75238 29.5468C4.63965 27.849 4.63965 25.1166 4.63965 19.6517Z" stroke="#1252D3" stroke-width="2.88" stroke-linecap="round" stroke-linejoin="round"/>
<path d="M34.4662 31.7028L43.2825 40.519M43.2825 40.519V32.9622M43.2825 40.519H35.7257M29.4284 26.6649L20.6121 17.8486M20.6121 17.8486V25.4054M20.6121 17.8486H28.1689" stroke="#1252D3" stroke-width="2.88" stroke-linecap="round" stroke-linejoin="round"/>
</g>
<defs>
<clipPath id="clip0_14050_3450">
<rect width="48" height="48" fill="white"/>
</clipPath>
</defs>
</svg>
