<svg width="48" height="48" viewBox="0 0 48 48" fill="none" xmlns="http://www.w3.org/2000/svg">
<g clip-path="url(#clip0_14050_3477)">
<path d="M34.5052 30.868C34.1137 37.4383 28.5454 42.4427 22.068 42.0457C20.5079 41.9501 19.0374 41.5497 17.7093 40.9054C17.4551 40.7821 17.328 40.7205 17.2241 40.6901C17.1225 40.6603 17.0467 40.647 16.9411 40.6406C16.8332 40.634 16.7145 40.6466 16.477 40.6719L11.7938 41.1716C11.3033 41.2239 11.0581 41.25 10.8872 41.163C10.7375 41.0866 10.6225 40.9549 10.5659 40.7951C10.5011 40.6124 10.5563 40.3687 10.6666 39.8811L11.7195 35.2255C11.7729 34.9894 11.7996 34.8713 11.8061 34.7619C11.8125 34.6547 11.8087 34.5769 11.7918 34.471C11.7745 34.3627 11.7295 34.2273 11.6394 33.9565C11.1687 32.5415 10.9541 31.0126 11.0484 29.4301C11.4398 22.8599 17.0081 17.8555 23.4855 18.2526C29.9629 18.6496 34.8966 24.2978 34.5052 30.868Z" fill="#CBDBFC"/>
<path d="M18.7382 30.2574C24.7882 29.9156 29.5904 24.8181 29.5904 18.5796C29.5904 12.1197 24.4415 6.88306 18.0901 6.88306C11.7386 6.88306 6.58972 12.1197 6.58972 18.5796C6.58972 20.8813 7.2432 23.0275 8.37206 24.8371L7.55931 27.3169L7.55802 27.3206C7.24673 28.2704 7.09101 28.7455 7.20189 29.0617C7.29851 29.3373 7.51297 29.5545 7.78393 29.6528C8.09382 29.7652 8.5577 29.6079 9.48531 29.2935L9.49846 29.2893L11.9374 28.4628C13.7167 29.6108 15.8271 30.2756 18.0902 30.2756C18.3076 30.2756 18.5237 30.2695 18.7382 30.2574ZM18.7382 30.2574C18.738 30.2569 18.7384 30.2579 18.7382 30.2574ZM18.7382 30.2574C20.3117 34.8102 24.5764 38.074 29.5907 38.074C31.8538 38.074 33.9637 37.4086 35.7429 36.2604L38.1812 37.087L38.186 37.088C39.1197 37.4045 39.5877 37.5632 39.8986 37.4504C40.1696 37.3522 40.3813 37.1349 40.478 36.8593C40.5889 36.5427 40.4337 36.067 40.1216 35.1146L39.3088 32.6347L39.581 32.176C40.5422 30.467 41.0898 28.4871 41.0898 26.3772C41.0898 19.9174 35.9419 14.6807 29.5904 14.6807L29.1599 14.6888L28.9428 14.6995" stroke="#1252D3" stroke-width="3.097" stroke-linecap="round" stroke-linejoin="round"/>
</g>
<defs>
<clipPath id="clip0_14050_3477">
<rect width="48" height="48" fill="white"/>
</clipPath>
</defs>
</svg>
