<svg width="48" height="48" viewBox="0 0 48 48" fill="none" xmlns="http://www.w3.org/2000/svg">
<g clip-path="url(#clip0_14050_3512)">
<path d="M33.2999 5.17871H8.66883C6.26708 5.17871 4.32007 7.12572 4.32007 9.52747V32.9466C4.32007 35.3483 6.26708 37.2953 8.66883 37.2953H33.2999C35.7017 37.2953 37.6487 35.3483 37.6487 32.9466V9.52747C37.6487 7.12572 35.7017 5.17871 33.2999 5.17871Z" fill="#CBDBFC"/>
<path d="M38.754 13.6621H17.7588C15.357 13.6621 13.41 15.6091 13.41 18.0109V37.7941C13.41 40.1959 15.357 42.1429 17.7588 42.1429H38.754C41.1557 42.1429 43.1027 40.1959 43.1027 37.7941V18.0109C43.1027 15.6091 41.1557 13.6621 38.754 13.6621Z" fill="#FEFCFA"/>
<path d="M41.89 40.3769V30.0234L23.6566 35.2002L16.4391 43.1644L39.231 43.9608L41.89 40.3769Z" fill="#CBDBFC"/>
<path d="M34.5791 43.3551H19.2896C18.2903 43.3551 17.7906 43.3551 17.5592 43.1495C17.3584 42.971 17.2519 42.7033 17.2726 42.4293C17.2965 42.1136 17.6499 41.7459 18.3565 41.0103L32.3829 26.4114C33.0362 25.7316 33.3627 25.3915 33.7394 25.2641C34.0707 25.1521 34.4277 25.1521 34.759 25.2641C35.1356 25.3915 35.4623 25.7316 36.1155 26.4114L42.4971 33.0536V35.1139M34.5791 43.3551C37.3507 43.3551 38.7364 43.3551 39.7951 42.7937C40.7262 42.2999 41.4833 41.5119 41.9578 40.5428C42.4971 39.4409 42.4971 37.9986 42.4971 35.1139M34.5791 43.3551H20.7225C17.9509 43.3551 16.5651 43.3551 15.5066 42.7937C14.5754 42.2999 13.8183 41.5119 13.3439 40.5428C12.8044 39.4409 12.8044 37.9986 12.8044 35.1139V20.6918C12.8044 17.807 12.8044 16.3646 13.3439 15.2629C13.8183 14.2936 14.5754 13.5057 15.5066 13.0118C16.5651 12.4504 17.9509 12.4504 20.7225 12.4504H34.5791C37.3507 12.4504 38.7364 12.4504 39.7951 13.0118C40.7262 13.5057 41.4833 14.2936 41.9578 15.2629C42.4971 16.3646 42.4971 17.807 42.4971 20.6918V35.1139M25.1764 21.8936C25.1764 23.7901 23.6993 25.3274 21.8772 25.3274C20.0551 25.3274 18.578 23.7901 18.578 21.8936C18.578 19.9971 20.0551 18.4598 21.8772 18.4598C23.6993 18.4598 25.1764 19.9971 25.1764 21.8936Z" stroke="#1252D3" stroke-width="2.9814" stroke-linecap="round" stroke-linejoin="round"/>
</g>
<defs>
<clipPath id="clip0_14050_3512">
<rect width="48" height="48" fill="white"/>
</clipPath>
</defs>
</svg>
