<svg width="48" height="48" viewBox="0 0 48 48" fill="none" xmlns="http://www.w3.org/2000/svg">
<g clip-path="url(#clip0_14050_3590)">
<path d="M29.7492 41.4936C38.757 41.4936 46.0593 34.1914 46.0593 25.1835C46.0593 16.1757 38.757 8.87341 29.7492 8.87341C20.7414 8.87341 13.4391 16.1757 13.4391 25.1835C13.4391 34.1914 20.7414 41.4936 29.7492 41.4936Z" fill="#CBDBFC"/>
<path d="M3.47879 25.3528C3.25204 24.9938 3.13865 24.8142 3.07518 24.5374C3.02751 24.3293 3.02751 24.0013 3.07518 23.7934C3.13865 23.5164 3.25204 23.3369 3.47879 22.9778C5.35264 20.0108 10.9303 12.51 19.4304 12.51C27.9304 12.51 33.5081 20.0108 35.3819 22.9778C35.6087 23.3369 35.722 23.5164 35.7855 23.7934C35.8332 24.0013 35.8332 24.3293 35.7855 24.5374C35.722 24.8142 35.6087 24.9938 35.3819 25.3528C33.5081 28.3199 27.9304 35.8206 19.4304 35.8206C10.9303 35.8206 5.35264 28.3199 3.47879 25.3528Z" stroke="#1252D3" stroke-width="2.88" stroke-linecap="round" stroke-linejoin="round"/>
<path d="M19.4303 29.1604C22.1891 29.1604 24.4255 26.9241 24.4255 24.1653C24.4255 21.4066 22.1891 19.1702 19.4303 19.1702C16.6716 19.1702 14.4352 21.4066 14.4352 24.1653C14.4352 26.9241 16.6716 29.1604 19.4303 29.1604Z" stroke="#1252D3" stroke-width="2.88" stroke-linecap="round" stroke-linejoin="round"/>
<path d="M30.6201 8.05872L31.4102 11.2191C31.5643 11.8358 31.6414 12.1442 31.802 12.3951C31.944 12.6171 32.1326 12.8055 32.3544 12.9475C32.6054 13.1081 32.9137 13.1852 33.5304 13.3394L36.6908 14.1294L33.5304 14.9195C32.9137 15.0737 32.6054 15.1508 32.3544 15.3114C32.1326 15.4534 31.944 15.6418 31.802 15.8638C31.6414 16.1147 31.5643 16.4231 31.4102 17.0398L30.6201 20.2002L29.83 17.0398C29.6758 16.4231 29.5988 16.1147 29.4382 15.8638C29.2962 15.6418 29.1077 15.4534 28.8858 15.3114C28.6348 15.1508 28.3266 15.0737 27.7099 14.9195L24.5494 14.1294L27.7099 13.3394C28.3266 13.1852 28.6348 13.1081 28.8858 12.9475C29.1077 12.8055 29.2962 12.6171 29.4382 12.3951C29.5988 12.1442 29.6758 11.8358 29.83 11.2191L30.6201 8.05872Z" fill="white"/>
<path d="M30.6201 8.05872L31.4102 11.2191C31.5643 11.8358 31.6414 12.1442 31.802 12.3951C31.944 12.6171 32.1326 12.8055 32.3544 12.9475C32.6054 13.1081 32.9137 13.1852 33.5304 13.3394L36.6908 14.1294L33.5304 14.9195C32.9137 15.0737 32.6054 15.1508 32.3544 15.3114C32.1326 15.4534 31.944 15.6418 31.802 15.8638C31.6414 16.1147 31.5643 16.4231 31.4102 17.0398L30.6201 20.2002L29.83 17.0398C29.6758 16.4231 29.5988 16.1147 29.4382 15.8638C29.2962 15.6418 29.1077 15.4534 28.8858 15.3114C28.6348 15.1508 28.3266 15.0737 27.7099 14.9195L24.5494 14.1294L27.7099 13.3394C28.3266 13.1852 28.6348 13.1081 28.8858 12.9475C29.1077 12.8055 29.2962 12.6171 29.4382 12.3951C29.5988 12.1442 29.6758 11.8358 29.83 11.2191L30.6201 8.05872Z" fill="white"/>
</g>
<defs>
<clipPath id="clip0_14050_3590">
<rect width="48" height="48" fill="white"/>
</clipPath>
</defs>
</svg>
