<svg width="48" height="48" viewBox="0 0 48 48" fill="none" xmlns="http://www.w3.org/2000/svg">
<path d="M38.4146 12.1519H14.7219C11.1869 12.1519 8.32129 15.0175 8.32129 18.5524V30.4758C8.32129 34.0107 11.1869 36.8764 14.7219 36.8764H38.4146C41.9496 36.8764 44.8152 34.0107 44.8152 30.4758V18.5524C44.8152 15.0175 41.9496 12.1519 38.4146 12.1519Z" fill="#CBDBFC"/>
<path d="M14.5107 40.0465H28.7383M21.6245 33.0024V40.0465M12.3766 33.0024H30.8725C33.8606 33.0024 35.3547 33.0024 36.4959 32.4266C37.4999 31.9201 38.3161 31.1119 38.8275 30.1179C39.4091 28.9878 39.4091 27.5084 39.4091 24.5496V16.8012C39.4091 13.8425 39.4091 12.363 38.8275 11.233C38.3161 10.2389 37.4999 9.4307 36.4959 8.92421C35.3547 8.34839 33.8606 8.34839 30.8725 8.34839H12.3766C9.38847 8.34839 7.89442 8.34839 6.75312 8.92421C5.74921 9.4307 4.933 10.2389 4.42149 11.233C3.83997 12.363 3.83997 13.8425 3.83997 16.8012V24.5496C3.83997 27.5084 3.83997 28.9878 4.42149 30.1179C4.933 31.1119 5.74921 31.9201 6.75312 32.4266C7.89442 33.0024 9.38847 33.0024 12.3766 33.0024Z" stroke="#1252D3" stroke-width="2.88" stroke-linecap="round" stroke-linejoin="round"/>
<path d="M35.8305 5.17871L36.7443 8.79805C36.9227 9.50429 37.0118 9.85743 37.1975 10.1448C37.3617 10.399 37.5797 10.6148 37.8364 10.7774C38.1266 10.9612 38.4833 11.0496 39.1965 11.2261L42.8517 12.131L39.1965 13.0358C38.4833 13.2123 38.1266 13.3007 37.8364 13.4845C37.5797 13.6471 37.3617 13.8629 37.1975 14.1171C37.0118 14.4045 36.9227 14.7577 36.7443 15.4638L35.8305 19.0832L34.9168 15.4638C34.7384 14.7577 34.6493 14.4045 34.4636 14.1171C34.2993 13.8629 34.0814 13.6471 33.8247 13.4845C33.5345 13.3007 33.1778 13.2123 32.4646 13.0358L28.8094 12.131L32.4646 11.2261C33.1778 11.0496 33.5345 10.9612 33.8247 10.7774C34.0814 10.6148 34.2993 10.399 34.4636 10.1448C34.6493 9.85743 34.7384 9.50429 34.9168 8.79805L35.8305 5.17871Z" fill="white"/>
<path d="M35.8305 5.17871L36.7443 8.79805C36.9227 9.50429 37.0118 9.85743 37.1975 10.1448C37.3617 10.399 37.5797 10.6148 37.8364 10.7774C38.1266 10.9612 38.4833 11.0496 39.1965 11.2261L42.8517 12.131L39.1965 13.0358C38.4833 13.2123 38.1266 13.3007 37.8364 13.4845C37.5797 13.6471 37.3617 13.8629 37.1975 14.1171C37.0118 14.4045 36.9227 14.7577 36.7443 15.4638L35.8305 19.0832L34.9168 15.4638C34.7384 14.7577 34.6493 14.4045 34.4636 14.1171C34.2993 13.8629 34.0814 13.6471 33.8247 13.4845C33.5345 13.3007 33.1778 13.2123 32.4646 13.0358L28.8094 12.131L32.4646 11.2261C33.1778 11.0496 33.5345 10.9612 33.8247 10.7774C34.0814 10.6148 34.2993 10.399 34.4636 10.1448C34.6493 9.85743 34.7384 9.50429 34.9168 8.79805L35.8305 5.17871Z" fill="white"/>
<path d="M28.4897 15.3217L29.1146 17.7969C29.2366 18.2799 29.2976 18.5214 29.4245 18.7179C29.537 18.8918 29.6859 19.0394 29.8615 19.1506C30.06 19.2764 30.3039 19.3368 30.7917 19.4575L33.2915 20.0763L30.7917 20.6952C30.3039 20.8159 30.06 20.8763 29.8615 21.0021C29.6859 21.1132 29.537 21.2609 29.4245 21.4347C29.2976 21.6313 29.2366 21.8727 29.1146 22.3558L28.4897 24.831L27.8647 22.3558C27.7428 21.8727 27.6818 21.6313 27.5548 21.4347C27.4425 21.2609 27.2934 21.1132 27.1178 21.0021C26.9194 20.8763 26.6755 20.8159 26.1877 20.6952L23.6879 20.0763L26.1877 19.4575C26.6755 19.3368 26.9194 19.2764 27.1178 19.1506C27.2934 19.0394 27.4425 18.8918 27.5548 18.7179C27.6818 18.5214 27.7428 18.2799 27.8647 17.7969L28.4897 15.3217Z" fill="white"/>
<path d="M28.4897 15.3217L29.1146 17.7969C29.2366 18.2799 29.2976 18.5214 29.4245 18.7179C29.537 18.8918 29.6859 19.0394 29.8615 19.1506C30.06 19.2764 30.3039 19.3368 30.7917 19.4575L33.2915 20.0763L30.7917 20.6952C30.3039 20.8159 30.06 20.8763 29.8615 21.0021C29.6859 21.1132 29.537 21.2609 29.4245 21.4347C29.2976 21.6313 29.2366 21.8727 29.1146 22.3558L28.4897 24.831L27.8647 22.3558C27.7428 21.8727 27.6818 21.6313 27.5548 21.4347C27.4425 21.2609 27.2934 21.1132 27.1178 21.0021C26.9194 20.8763 26.6755 20.8159 26.1877 20.6952L23.6879 20.0763L26.1877 19.4575C26.6755 19.3368 26.9194 19.2764 27.1178 19.1506C27.2934 19.0394 27.4425 18.8918 27.5548 18.7179C27.6818 18.5214 27.7428 18.2799 27.8647 17.7969L28.4897 15.3217Z" fill="white"/>
</svg>
